<mxfile host="app.diagrams.net" modified="2021-10-27T03:13:30.786Z" agent="5.0 (Windows NT 10.0; Win64; x64) AppleWebKit/537.36 (KHTML, like Gecko) Chrome/94.0.4606.81 Safari/537.36" etag="HBL1-t8B_e9VGBD-8fBR" version="15.5.8" type="github">
  <diagram id="LGq059AQPGrpc4HSdwXk" name="Page-1">
    <mxGraphModel dx="1865" dy="547" grid="1" gridSize="10" guides="1" tooltips="1" connect="1" arrows="1" fold="1" page="1" pageScale="1" pageWidth="827" pageHeight="1169" math="0" shadow="0">
      <root>
        <mxCell id="0" />
        <mxCell id="1" parent="0" />
        <mxCell id="Ef68fgs5h4j_hSDtG3T8-144" value="" style="rounded=0;whiteSpace=wrap;html=1;dashed=1;strokeWidth=1;" vertex="1" parent="1">
          <mxGeometry x="80" y="2255" width="390" height="255" as="geometry" />
        </mxCell>
        <mxCell id="Ef68fgs5h4j_hSDtG3T8-142" value="" style="rounded=0;whiteSpace=wrap;html=1;dashed=1;strokeWidth=1;" vertex="1" parent="1">
          <mxGeometry x="299" y="1943" width="180" height="217" as="geometry" />
        </mxCell>
        <mxCell id="Ef68fgs5h4j_hSDtG3T8-137" value="" style="rounded=0;whiteSpace=wrap;html=1;dashed=1;strokeWidth=1;" vertex="1" parent="1">
          <mxGeometry x="80" y="1945" width="180" height="295" as="geometry" />
        </mxCell>
        <mxCell id="pCUsaN8ie-l78svKAJLq-1" value="struct bridge" style="rounded=0;whiteSpace=wrap;html=1;" parent="1" vertex="1">
          <mxGeometry x="80" y="78" width="160" height="30" as="geometry" />
        </mxCell>
        <mxCell id="pCUsaN8ie-l78svKAJLq-16" value="" style="edgeStyle=orthogonalEdgeStyle;rounded=0;orthogonalLoop=1;jettySize=auto;html=1;" parent="1" source="pCUsaN8ie-l78svKAJLq-2" edge="1">
          <mxGeometry relative="1" as="geometry">
            <mxPoint x="280" y="118" as="targetPoint" />
          </mxGeometry>
        </mxCell>
        <mxCell id="pCUsaN8ie-l78svKAJLq-2" value="node" style="rounded=0;whiteSpace=wrap;html=1;" parent="1" vertex="1">
          <mxGeometry x="80" y="108" width="160" height="20" as="geometry" />
        </mxCell>
        <mxCell id="pCUsaN8ie-l78svKAJLq-3" value="char *name" style="rounded=0;whiteSpace=wrap;html=1;" parent="1" vertex="1">
          <mxGeometry x="80" y="128" width="160" height="20" as="geometry" />
        </mxCell>
        <mxCell id="pCUsaN8ie-l78svKAJLq-4" value="char *type" style="rounded=0;whiteSpace=wrap;html=1;" parent="1" vertex="1">
          <mxGeometry x="80" y="148" width="160" height="20" as="geometry" />
        </mxCell>
        <mxCell id="pCUsaN8ie-l78svKAJLq-5" value="struct eth_addr ea" style="rounded=0;whiteSpace=wrap;html=1;" parent="1" vertex="1">
          <mxGeometry x="80" y="168" width="160" height="20" as="geometry" />
        </mxCell>
        <mxCell id="pCUsaN8ie-l78svKAJLq-32" style="edgeStyle=orthogonalEdgeStyle;rounded=0;orthogonalLoop=1;jettySize=auto;html=1;exitX=0;exitY=0.5;exitDx=0;exitDy=0;fontSize=13;entryX=1;entryY=0.5;entryDx=0;entryDy=0;" parent="1" source="pCUsaN8ie-l78svKAJLq-6" target="pCUsaN8ie-l78svKAJLq-33" edge="1">
          <mxGeometry relative="1" as="geometry">
            <mxPoint x="30" y="198" as="targetPoint" />
          </mxGeometry>
        </mxCell>
        <mxCell id="pCUsaN8ie-l78svKAJLq-6" value="*cfg" style="rounded=0;whiteSpace=wrap;html=1;" parent="1" vertex="1">
          <mxGeometry x="80" y="188" width="160" height="20" as="geometry" />
        </mxCell>
        <mxCell id="pCUsaN8ie-l78svKAJLq-61" style="edgeStyle=orthogonalEdgeStyle;rounded=0;orthogonalLoop=1;jettySize=auto;html=1;exitX=1;exitY=0.5;exitDx=0;exitDy=0;fontSize=16;strokeWidth=1;" parent="1" source="pCUsaN8ie-l78svKAJLq-8" target="pCUsaN8ie-l78svKAJLq-45" edge="1">
          <mxGeometry relative="1" as="geometry">
            <mxPoint x="280" y="210" as="targetPoint" />
          </mxGeometry>
        </mxCell>
        <mxCell id="pCUsaN8ie-l78svKAJLq-8" value="*ofproto" style="rounded=0;whiteSpace=wrap;html=1;" parent="1" vertex="1">
          <mxGeometry x="80" y="208" width="160" height="20" as="geometry" />
        </mxCell>
        <mxCell id="pCUsaN8ie-l78svKAJLq-9" value="struct hmap ports" style="rounded=0;whiteSpace=wrap;html=1;" parent="1" vertex="1">
          <mxGeometry x="80" y="228" width="160" height="20" as="geometry" />
        </mxCell>
        <mxCell id="pCUsaN8ie-l78svKAJLq-10" value="struct hmap ifaces" style="rounded=0;whiteSpace=wrap;html=1;" parent="1" vertex="1">
          <mxGeometry x="80" y="248" width="160" height="20" as="geometry" />
        </mxCell>
        <mxCell id="pCUsaN8ie-l78svKAJLq-11" value="struct hmap mirrors" style="rounded=0;whiteSpace=wrap;html=1;" parent="1" vertex="1">
          <mxGeometry x="80" y="268" width="160" height="20" as="geometry" />
        </mxCell>
        <mxCell id="pCUsaN8ie-l78svKAJLq-39" style="edgeStyle=orthogonalEdgeStyle;rounded=0;orthogonalLoop=1;jettySize=auto;html=1;exitX=0;exitY=0.5;exitDx=0;exitDy=0;entryX=1;entryY=0.5;entryDx=0;entryDy=0;fontSize=13;" parent="1" source="pCUsaN8ie-l78svKAJLq-12" target="pCUsaN8ie-l78svKAJLq-37" edge="1">
          <mxGeometry relative="1" as="geometry">
            <Array as="points">
              <mxPoint x="60" y="298" />
              <mxPoint x="60" y="208" />
            </Array>
          </mxGeometry>
        </mxCell>
        <mxCell id="pCUsaN8ie-l78svKAJLq-12" value="synth_local_port" style="rounded=0;whiteSpace=wrap;html=1;" parent="1" vertex="1">
          <mxGeometry x="80" y="288" width="160" height="20" as="geometry" />
        </mxCell>
        <mxCell id="pCUsaN8ie-l78svKAJLq-13" value="&lt;span&gt;synth_local_iface&lt;/span&gt;" style="rounded=0;whiteSpace=wrap;html=1;" parent="1" vertex="1">
          <mxGeometry x="80" y="308" width="160" height="20" as="geometry" />
        </mxCell>
        <mxCell id="pCUsaN8ie-l78svKAJLq-42" style="edgeStyle=orthogonalEdgeStyle;rounded=0;orthogonalLoop=1;jettySize=auto;html=1;exitX=0;exitY=0.5;exitDx=0;exitDy=0;entryX=1;entryY=0.5;entryDx=0;entryDy=0;fontSize=13;" parent="1" source="pCUsaN8ie-l78svKAJLq-13" target="pCUsaN8ie-l78svKAJLq-40" edge="1">
          <mxGeometry relative="1" as="geometry" />
        </mxCell>
        <mxCell id="pCUsaN8ie-l78svKAJLq-17" value="struct bridge" style="rounded=0;whiteSpace=wrap;html=1;" parent="1" vertex="1">
          <mxGeometry x="280" y="78" width="160" height="30" as="geometry" />
        </mxCell>
        <mxCell id="pCUsaN8ie-l78svKAJLq-18" value="node" style="rounded=0;whiteSpace=wrap;html=1;" parent="1" vertex="1">
          <mxGeometry x="280" y="108" width="160" height="20" as="geometry" />
        </mxCell>
        <mxCell id="pCUsaN8ie-l78svKAJLq-19" value="......." style="rounded=0;whiteSpace=wrap;html=1;" parent="1" vertex="1">
          <mxGeometry x="280" y="128" width="160" height="50" as="geometry" />
        </mxCell>
        <mxCell id="pCUsaN8ie-l78svKAJLq-30" value="&lt;font style=&quot;font-size: 16px&quot;&gt;......&lt;/font&gt;" style="text;html=1;strokeColor=none;fillColor=none;align=center;verticalAlign=middle;whiteSpace=wrap;rounded=0;" parent="1" vertex="1">
          <mxGeometry x="470" y="99" width="60" height="30" as="geometry" />
        </mxCell>
        <mxCell id="pCUsaN8ie-l78svKAJLq-31" value="" style="edgeStyle=orthogonalEdgeStyle;rounded=0;orthogonalLoop=1;jettySize=auto;html=1;" parent="1" edge="1">
          <mxGeometry relative="1" as="geometry">
            <mxPoint x="440" y="117.5" as="sourcePoint" />
            <mxPoint x="480" y="117.5" as="targetPoint" />
          </mxGeometry>
        </mxCell>
        <mxCell id="pCUsaN8ie-l78svKAJLq-33" value="struct ovsrec_bridge" style="rounded=0;whiteSpace=wrap;html=1;" parent="1" vertex="1">
          <mxGeometry x="-146" y="108" width="160" height="30" as="geometry" />
        </mxCell>
        <mxCell id="pCUsaN8ie-l78svKAJLq-34" value="......" style="rounded=0;whiteSpace=wrap;html=1;" parent="1" vertex="1">
          <mxGeometry x="-146" y="138" width="160" height="20" as="geometry" />
        </mxCell>
        <mxCell id="pCUsaN8ie-l78svKAJLq-37" value="struct ovsrec_port" style="rounded=0;whiteSpace=wrap;html=1;" parent="1" vertex="1">
          <mxGeometry x="-146" y="193" width="160" height="30" as="geometry" />
        </mxCell>
        <mxCell id="pCUsaN8ie-l78svKAJLq-38" value="......" style="rounded=0;whiteSpace=wrap;html=1;" parent="1" vertex="1">
          <mxGeometry x="-146" y="223" width="160" height="20" as="geometry" />
        </mxCell>
        <mxCell id="pCUsaN8ie-l78svKAJLq-40" value="struct ovsrec_interface" style="rounded=0;whiteSpace=wrap;html=1;" parent="1" vertex="1">
          <mxGeometry x="-146" y="278" width="160" height="30" as="geometry" />
        </mxCell>
        <mxCell id="pCUsaN8ie-l78svKAJLq-41" value="......" style="rounded=0;whiteSpace=wrap;html=1;" parent="1" vertex="1">
          <mxGeometry x="-146" y="308" width="160" height="20" as="geometry" />
        </mxCell>
        <mxCell id="pCUsaN8ie-l78svKAJLq-44" value="" style="endArrow=none;dashed=1;html=1;strokeWidth=1;rounded=0;fontSize=16;" parent="1" edge="1">
          <mxGeometry width="50" height="50" relative="1" as="geometry">
            <mxPoint x="-240" y="360" as="sourcePoint" />
            <mxPoint x="760" y="360" as="targetPoint" />
          </mxGeometry>
        </mxCell>
        <mxCell id="pCUsaN8ie-l78svKAJLq-45" value="struct ofproto" style="rounded=0;whiteSpace=wrap;html=1;" parent="1" vertex="1">
          <mxGeometry x="192" y="390" width="160" height="30" as="geometry" />
        </mxCell>
        <mxCell id="pCUsaN8ie-l78svKAJLq-46" value="hmap_node" style="rounded=0;whiteSpace=wrap;html=1;" parent="1" vertex="1">
          <mxGeometry x="192" y="420" width="160" height="20" as="geometry" />
        </mxCell>
        <mxCell id="pCUsaN8ie-l78svKAJLq-47" value="struct ofproto" style="rounded=0;whiteSpace=wrap;html=1;" parent="1" vertex="1">
          <mxGeometry x="392" y="390" width="160" height="30" as="geometry" />
        </mxCell>
        <mxCell id="pCUsaN8ie-l78svKAJLq-48" value="hmap_node" style="rounded=0;whiteSpace=wrap;html=1;" parent="1" vertex="1">
          <mxGeometry x="392" y="420" width="160" height="20" as="geometry" />
        </mxCell>
        <mxCell id="pCUsaN8ie-l78svKAJLq-49" value="" style="edgeStyle=orthogonalEdgeStyle;rounded=0;orthogonalLoop=1;jettySize=auto;html=1;" parent="1" edge="1">
          <mxGeometry relative="1" as="geometry">
            <mxPoint x="352" y="429.5" as="sourcePoint" />
            <mxPoint x="392" y="429.5" as="targetPoint" />
          </mxGeometry>
        </mxCell>
        <mxCell id="pCUsaN8ie-l78svKAJLq-50" value="......" style="rounded=0;whiteSpace=wrap;html=1;" parent="1" vertex="1">
          <mxGeometry x="392" y="440" width="160" height="40" as="geometry" />
        </mxCell>
        <mxCell id="pCUsaN8ie-l78svKAJLq-51" value="struct ofproto_class *" style="rounded=0;whiteSpace=wrap;html=1;" parent="1" vertex="1">
          <mxGeometry x="192" y="440" width="160" height="20" as="geometry" />
        </mxCell>
        <mxCell id="pCUsaN8ie-l78svKAJLq-52" value="char *type" style="rounded=0;whiteSpace=wrap;html=1;" parent="1" vertex="1">
          <mxGeometry x="192" y="460" width="160" height="20" as="geometry" />
        </mxCell>
        <mxCell id="pCUsaN8ie-l78svKAJLq-53" value="char *name" style="rounded=0;whiteSpace=wrap;html=1;" parent="1" vertex="1">
          <mxGeometry x="192" y="480" width="160" height="20" as="geometry" />
        </mxCell>
        <mxCell id="pCUsaN8ie-l78svKAJLq-54" value="datapath_id" style="rounded=0;whiteSpace=wrap;html=1;" parent="1" vertex="1">
          <mxGeometry x="192" y="500" width="160" height="20" as="geometry" />
        </mxCell>
        <mxCell id="pCUsaN8ie-l78svKAJLq-55" value="&lt;span&gt;struct hmap ports&lt;/span&gt;" style="rounded=0;whiteSpace=wrap;html=1;" parent="1" vertex="1">
          <mxGeometry x="192" y="520" width="160" height="20" as="geometry" />
        </mxCell>
        <mxCell id="pCUsaN8ie-l78svKAJLq-69" style="edgeStyle=orthogonalEdgeStyle;rounded=0;orthogonalLoop=1;jettySize=auto;html=1;exitX=0;exitY=0.5;exitDx=0;exitDy=0;entryX=1;entryY=0.5;entryDx=0;entryDy=0;fontSize=16;strokeWidth=1;" parent="1" source="pCUsaN8ie-l78svKAJLq-56" target="pCUsaN8ie-l78svKAJLq-62" edge="1">
          <mxGeometry relative="1" as="geometry">
            <Array as="points">
              <mxPoint x="174" y="550" />
              <mxPoint x="174" y="525" />
            </Array>
          </mxGeometry>
        </mxCell>
        <mxCell id="pCUsaN8ie-l78svKAJLq-56" value="&lt;span&gt;*tables&lt;/span&gt;" style="rounded=0;whiteSpace=wrap;html=1;" parent="1" vertex="1">
          <mxGeometry x="192" y="540" width="160" height="20" as="geometry" />
        </mxCell>
        <mxCell id="pCUsaN8ie-l78svKAJLq-57" value="......" style="rounded=0;whiteSpace=wrap;html=1;" parent="1" vertex="1">
          <mxGeometry x="192" y="560" width="160" height="20" as="geometry" />
        </mxCell>
        <mxCell id="pCUsaN8ie-l78svKAJLq-58" value="struct hmap meters" style="rounded=0;whiteSpace=wrap;html=1;" parent="1" vertex="1">
          <mxGeometry x="192" y="580" width="160" height="20" as="geometry" />
        </mxCell>
        <mxCell id="pCUsaN8ie-l78svKAJLq-87" style="edgeStyle=orthogonalEdgeStyle;rounded=0;orthogonalLoop=1;jettySize=auto;html=1;exitX=1;exitY=0.5;exitDx=0;exitDy=0;entryX=0;entryY=0.5;entryDx=0;entryDy=0;fontSize=16;strokeWidth=1;" parent="1" source="pCUsaN8ie-l78svKAJLq-59" target="pCUsaN8ie-l78svKAJLq-70" edge="1">
          <mxGeometry relative="1" as="geometry" />
        </mxCell>
        <mxCell id="pCUsaN8ie-l78svKAJLq-59" value="*connmgr" style="rounded=0;whiteSpace=wrap;html=1;" parent="1" vertex="1">
          <mxGeometry x="192" y="600" width="160" height="20" as="geometry" />
        </mxCell>
        <mxCell id="pCUsaN8ie-l78svKAJLq-60" value="struct cmap groups" style="rounded=0;whiteSpace=wrap;html=1;" parent="1" vertex="1">
          <mxGeometry x="192" y="620" width="160" height="20" as="geometry" />
        </mxCell>
        <mxCell id="pCUsaN8ie-l78svKAJLq-62" value="struct oftable" style="rounded=0;whiteSpace=wrap;html=1;" parent="1" vertex="1">
          <mxGeometry x="-16" y="510" width="160" height="30" as="geometry" />
        </mxCell>
        <mxCell id="pCUsaN8ie-l78svKAJLq-63" value="struct classifier cls" style="rounded=0;whiteSpace=wrap;html=1;" parent="1" vertex="1">
          <mxGeometry x="-16" y="540" width="160" height="20" as="geometry" />
        </mxCell>
        <mxCell id="pCUsaN8ie-l78svKAJLq-65" value="char *name" style="rounded=0;whiteSpace=wrap;html=1;" parent="1" vertex="1">
          <mxGeometry x="-16" y="560" width="160" height="20" as="geometry" />
        </mxCell>
        <mxCell id="pCUsaN8ie-l78svKAJLq-66" value="max_flows" style="rounded=0;whiteSpace=wrap;html=1;" parent="1" vertex="1">
          <mxGeometry x="-16" y="580" width="160" height="20" as="geometry" />
        </mxCell>
        <mxCell id="pCUsaN8ie-l78svKAJLq-67" value="n_flows" style="rounded=0;whiteSpace=wrap;html=1;" parent="1" vertex="1">
          <mxGeometry x="-16" y="600" width="160" height="20" as="geometry" />
        </mxCell>
        <mxCell id="pCUsaN8ie-l78svKAJLq-68" value="......" style="rounded=0;whiteSpace=wrap;html=1;" parent="1" vertex="1">
          <mxGeometry x="-16" y="620" width="160" height="20" as="geometry" />
        </mxCell>
        <mxCell id="pCUsaN8ie-l78svKAJLq-70" value="struct connmgr" style="rounded=0;whiteSpace=wrap;html=1;" parent="1" vertex="1">
          <mxGeometry x="392" y="510" width="160" height="30" as="geometry" />
        </mxCell>
        <mxCell id="pCUsaN8ie-l78svKAJLq-88" style="edgeStyle=orthogonalEdgeStyle;rounded=0;orthogonalLoop=1;jettySize=auto;html=1;exitX=1;exitY=0.25;exitDx=0;exitDy=0;entryX=1;entryY=0.5;entryDx=0;entryDy=0;fontSize=16;strokeWidth=1;" parent="1" source="pCUsaN8ie-l78svKAJLq-71" target="pCUsaN8ie-l78svKAJLq-47" edge="1">
          <mxGeometry relative="1" as="geometry" />
        </mxCell>
        <mxCell id="pCUsaN8ie-l78svKAJLq-71" value="*ofproto" style="rounded=0;whiteSpace=wrap;html=1;" parent="1" vertex="1">
          <mxGeometry x="392" y="540" width="160" height="20" as="geometry" />
        </mxCell>
        <mxCell id="pCUsaN8ie-l78svKAJLq-72" value="char *name" style="rounded=0;whiteSpace=wrap;html=1;" parent="1" vertex="1">
          <mxGeometry x="392" y="560" width="160" height="20" as="geometry" />
        </mxCell>
        <mxCell id="pCUsaN8ie-l78svKAJLq-73" value="max_flows" style="rounded=0;whiteSpace=wrap;html=1;" parent="1" vertex="1">
          <mxGeometry x="392" y="580" width="160" height="20" as="geometry" />
        </mxCell>
        <mxCell id="pCUsaN8ie-l78svKAJLq-74" value="n_flows" style="rounded=0;whiteSpace=wrap;html=1;" parent="1" vertex="1">
          <mxGeometry x="392" y="600" width="160" height="20" as="geometry" />
        </mxCell>
        <mxCell id="pCUsaN8ie-l78svKAJLq-75" value="......" style="rounded=0;whiteSpace=wrap;html=1;" parent="1" vertex="1">
          <mxGeometry x="392" y="620" width="160" height="20" as="geometry" />
        </mxCell>
        <mxCell id="pCUsaN8ie-l78svKAJLq-89" value="" style="endArrow=none;dashed=1;html=1;strokeWidth=1;rounded=0;fontSize=16;" parent="1" edge="1">
          <mxGeometry width="50" height="50" relative="1" as="geometry">
            <mxPoint x="-240" y="660" as="sourcePoint" />
            <mxPoint x="760" y="660" as="targetPoint" />
          </mxGeometry>
        </mxCell>
        <mxCell id="pCUsaN8ie-l78svKAJLq-90" value="&lt;font style=&quot;font-size: 16px&quot;&gt;......&lt;/font&gt;" style="text;html=1;strokeColor=none;fillColor=none;align=center;verticalAlign=middle;whiteSpace=wrap;rounded=0;" parent="1" vertex="1">
          <mxGeometry x="582" y="410" width="60" height="30" as="geometry" />
        </mxCell>
        <mxCell id="pCUsaN8ie-l78svKAJLq-91" value="" style="edgeStyle=orthogonalEdgeStyle;rounded=0;orthogonalLoop=1;jettySize=auto;html=1;" parent="1" edge="1">
          <mxGeometry relative="1" as="geometry">
            <mxPoint x="552" y="428.5" as="sourcePoint" />
            <mxPoint x="592" y="428.5" as="targetPoint" />
          </mxGeometry>
        </mxCell>
        <mxCell id="pCUsaN8ie-l78svKAJLq-92" value="struct ofproto_dpif" style="rounded=0;whiteSpace=wrap;html=1;" parent="1" vertex="1">
          <mxGeometry x="-133" y="690" width="160" height="30" as="geometry" />
        </mxCell>
        <mxCell id="pCUsaN8ie-l78svKAJLq-93" value="&#xa;&#xa;&lt;span style=&quot;color: rgb(0, 0, 0); font-family: helvetica; font-size: 12px; font-style: normal; font-weight: 400; letter-spacing: normal; text-align: center; text-indent: 0px; text-transform: none; word-spacing: 0px; background-color: rgb(248, 249, 250); display: inline; float: none;&quot;&gt;name_node&lt;/span&gt;&#xa;&#xa;" style="rounded=0;whiteSpace=wrap;html=1;" parent="1" vertex="1">
          <mxGeometry x="-133" y="720" width="160" height="20" as="geometry" />
        </mxCell>
        <mxCell id="pCUsaN8ie-l78svKAJLq-94" value="uuid_node" style="rounded=0;whiteSpace=wrap;html=1;" parent="1" vertex="1">
          <mxGeometry x="-133" y="740" width="160" height="20" as="geometry" />
        </mxCell>
        <mxCell id="pCUsaN8ie-l78svKAJLq-117" style="edgeStyle=orthogonalEdgeStyle;rounded=0;orthogonalLoop=1;jettySize=auto;html=1;exitX=0;exitY=0.5;exitDx=0;exitDy=0;entryX=0;entryY=0.5;entryDx=0;entryDy=0;fontSize=16;strokeWidth=1;" parent="1" source="pCUsaN8ie-l78svKAJLq-95" target="pCUsaN8ie-l78svKAJLq-45" edge="1">
          <mxGeometry relative="1" as="geometry" />
        </mxCell>
        <mxCell id="pCUsaN8ie-l78svKAJLq-95" value="struct ofproto up" style="rounded=0;whiteSpace=wrap;html=1;" parent="1" vertex="1">
          <mxGeometry x="-133" y="760" width="160" height="20" as="geometry" />
        </mxCell>
        <mxCell id="pCUsaN8ie-l78svKAJLq-217" style="edgeStyle=orthogonalEdgeStyle;rounded=0;orthogonalLoop=1;jettySize=auto;html=1;exitX=0;exitY=0.75;exitDx=0;exitDy=0;entryX=0;entryY=0.5;entryDx=0;entryDy=0;fontSize=16;strokeWidth=1;" parent="1" source="pCUsaN8ie-l78svKAJLq-96" target="pCUsaN8ie-l78svKAJLq-155" edge="1">
          <mxGeometry relative="1" as="geometry" />
        </mxCell>
        <mxCell id="pCUsaN8ie-l78svKAJLq-96" value="*backer" style="rounded=0;whiteSpace=wrap;html=1;" parent="1" vertex="1">
          <mxGeometry x="-133" y="780" width="160" height="20" as="geometry" />
        </mxCell>
        <mxCell id="pCUsaN8ie-l78svKAJLq-97" value="uuid" style="rounded=0;whiteSpace=wrap;html=1;" parent="1" vertex="1">
          <mxGeometry x="-133" y="800" width="160" height="20" as="geometry" />
        </mxCell>
        <mxCell id="pCUsaN8ie-l78svKAJLq-98" value="......" style="rounded=0;whiteSpace=wrap;html=1;" parent="1" vertex="1">
          <mxGeometry x="-133" y="820" width="160" height="20" as="geometry" />
        </mxCell>
        <mxCell id="pCUsaN8ie-l78svKAJLq-130" style="edgeStyle=orthogonalEdgeStyle;rounded=0;orthogonalLoop=1;jettySize=auto;html=1;exitX=1;exitY=0.5;exitDx=0;exitDy=0;entryX=0;entryY=0.5;entryDx=0;entryDy=0;fontSize=16;strokeWidth=1;" parent="1" source="pCUsaN8ie-l78svKAJLq-99" target="pCUsaN8ie-l78svKAJLq-126" edge="1">
          <mxGeometry relative="1" as="geometry">
            <Array as="points">
              <mxPoint x="40" y="850" />
              <mxPoint x="40" y="820" />
            </Array>
          </mxGeometry>
        </mxCell>
        <mxCell id="pCUsaN8ie-l78svKAJLq-99" value="*miss_rule" style="rounded=0;whiteSpace=wrap;html=1;" parent="1" vertex="1">
          <mxGeometry x="-133" y="840" width="160" height="20" as="geometry" />
        </mxCell>
        <mxCell id="pCUsaN8ie-l78svKAJLq-138" style="edgeStyle=orthogonalEdgeStyle;rounded=0;orthogonalLoop=1;jettySize=auto;html=1;exitX=1;exitY=0.5;exitDx=0;exitDy=0;entryX=0;entryY=0.5;entryDx=0;entryDy=0;fontSize=16;strokeWidth=1;" parent="1" source="pCUsaN8ie-l78svKAJLq-100" target="pCUsaN8ie-l78svKAJLq-134" edge="1">
          <mxGeometry relative="1" as="geometry">
            <Array as="points">
              <mxPoint x="50" y="870" />
              <mxPoint x="50" y="890" />
              <mxPoint x="430" y="890" />
              <mxPoint x="430" y="927" />
            </Array>
          </mxGeometry>
        </mxCell>
        <mxCell id="pCUsaN8ie-l78svKAJLq-100" value="*netflow" style="rounded=0;whiteSpace=wrap;html=1;" parent="1" vertex="1">
          <mxGeometry x="-133" y="860" width="160" height="20" as="geometry" />
        </mxCell>
        <mxCell id="pCUsaN8ie-l78svKAJLq-139" style="edgeStyle=orthogonalEdgeStyle;rounded=0;orthogonalLoop=1;jettySize=auto;html=1;exitX=1;exitY=0.5;exitDx=0;exitDy=0;entryX=0;entryY=0.5;entryDx=0;entryDy=0;fontSize=16;strokeWidth=1;" parent="1" source="pCUsaN8ie-l78svKAJLq-101" target="pCUsaN8ie-l78svKAJLq-136" edge="1">
          <mxGeometry relative="1" as="geometry">
            <Array as="points">
              <mxPoint x="40" y="890" />
              <mxPoint x="40" y="900" />
              <mxPoint x="240" y="900" />
              <mxPoint x="240" y="927" />
            </Array>
          </mxGeometry>
        </mxCell>
        <mxCell id="pCUsaN8ie-l78svKAJLq-101" value="*sflow" style="rounded=0;whiteSpace=wrap;html=1;" parent="1" vertex="1">
          <mxGeometry x="-133" y="880" width="160" height="20" as="geometry" />
        </mxCell>
        <mxCell id="pCUsaN8ie-l78svKAJLq-140" style="edgeStyle=orthogonalEdgeStyle;rounded=0;orthogonalLoop=1;jettySize=auto;html=1;exitX=1;exitY=0.5;exitDx=0;exitDy=0;entryX=0;entryY=0.5;entryDx=0;entryDy=0;fontSize=16;strokeWidth=1;" parent="1" source="pCUsaN8ie-l78svKAJLq-102" target="pCUsaN8ie-l78svKAJLq-131" edge="1">
          <mxGeometry relative="1" as="geometry">
            <Array as="points">
              <mxPoint x="49" y="910" />
              <mxPoint x="49" y="927" />
            </Array>
          </mxGeometry>
        </mxCell>
        <mxCell id="pCUsaN8ie-l78svKAJLq-102" value="*ipfix" style="rounded=0;whiteSpace=wrap;html=1;" parent="1" vertex="1">
          <mxGeometry x="-133" y="900" width="160" height="20" as="geometry" />
        </mxCell>
        <mxCell id="pCUsaN8ie-l78svKAJLq-103" value="struct hmap bundles" style="rounded=0;whiteSpace=wrap;html=1;" parent="1" vertex="1">
          <mxGeometry x="-133" y="920" width="160" height="20" as="geometry" />
        </mxCell>
        <mxCell id="pCUsaN8ie-l78svKAJLq-104" value="struct ofproto_dpif" style="rounded=0;whiteSpace=wrap;html=1;" parent="1" vertex="1">
          <mxGeometry x="67" y="690" width="160" height="30" as="geometry" />
        </mxCell>
        <mxCell id="pCUsaN8ie-l78svKAJLq-105" value="name_node" style="rounded=0;whiteSpace=wrap;html=1;" parent="1" vertex="1">
          <mxGeometry x="67" y="720" width="160" height="20" as="geometry" />
        </mxCell>
        <mxCell id="pCUsaN8ie-l78svKAJLq-106" value="" style="edgeStyle=orthogonalEdgeStyle;rounded=0;orthogonalLoop=1;jettySize=auto;html=1;" parent="1" edge="1">
          <mxGeometry relative="1" as="geometry">
            <mxPoint x="27" y="729.5" as="sourcePoint" />
            <mxPoint x="67" y="729.5" as="targetPoint" />
          </mxGeometry>
        </mxCell>
        <mxCell id="pCUsaN8ie-l78svKAJLq-107" value="uuid_node" style="rounded=0;whiteSpace=wrap;html=1;" parent="1" vertex="1">
          <mxGeometry x="67" y="740" width="160" height="20" as="geometry" />
        </mxCell>
        <mxCell id="pCUsaN8ie-l78svKAJLq-108" value="......" style="rounded=0;whiteSpace=wrap;html=1;" parent="1" vertex="1">
          <mxGeometry x="67" y="760" width="160" height="20" as="geometry" />
        </mxCell>
        <mxCell id="pCUsaN8ie-l78svKAJLq-109" value="" style="edgeStyle=orthogonalEdgeStyle;rounded=0;orthogonalLoop=1;jettySize=auto;html=1;" parent="1" edge="1">
          <mxGeometry relative="1" as="geometry">
            <mxPoint x="27" y="749.5" as="sourcePoint" />
            <mxPoint x="67" y="749.5" as="targetPoint" />
          </mxGeometry>
        </mxCell>
        <mxCell id="pCUsaN8ie-l78svKAJLq-112" value="" style="edgeStyle=orthogonalEdgeStyle;rounded=0;orthogonalLoop=1;jettySize=auto;html=1;" parent="1" edge="1">
          <mxGeometry relative="1" as="geometry">
            <mxPoint x="227" y="729.5" as="sourcePoint" />
            <mxPoint x="267" y="729.5" as="targetPoint" />
          </mxGeometry>
        </mxCell>
        <mxCell id="pCUsaN8ie-l78svKAJLq-115" value="" style="edgeStyle=orthogonalEdgeStyle;rounded=0;orthogonalLoop=1;jettySize=auto;html=1;" parent="1" edge="1">
          <mxGeometry relative="1" as="geometry">
            <mxPoint x="227" y="749.5" as="sourcePoint" />
            <mxPoint x="267" y="749.5" as="targetPoint" />
          </mxGeometry>
        </mxCell>
        <mxCell id="pCUsaN8ie-l78svKAJLq-116" value="&lt;font style=&quot;font-size: 16px&quot;&gt;......&lt;/font&gt;" style="text;html=1;strokeColor=none;fillColor=none;align=center;verticalAlign=middle;whiteSpace=wrap;rounded=0;" parent="1" vertex="1">
          <mxGeometry x="280" y="720" width="60" height="30" as="geometry" />
        </mxCell>
        <mxCell id="pCUsaN8ie-l78svKAJLq-118" value="struct mac_learning *ml" style="rounded=0;whiteSpace=wrap;html=1;" parent="1" vertex="1">
          <mxGeometry x="-133" y="940" width="160" height="20" as="geometry" />
        </mxCell>
        <mxCell id="pCUsaN8ie-l78svKAJLq-119" value="struct mcast_snooping *ms" style="rounded=0;whiteSpace=wrap;html=1;" parent="1" vertex="1">
          <mxGeometry x="-133" y="960" width="160" height="20" as="geometry" />
        </mxCell>
        <mxCell id="pCUsaN8ie-l78svKAJLq-143" style="edgeStyle=orthogonalEdgeStyle;rounded=0;orthogonalLoop=1;jettySize=auto;html=1;exitX=1;exitY=0.5;exitDx=0;exitDy=0;entryX=0;entryY=0.5;entryDx=0;entryDy=0;fontSize=16;strokeWidth=1;" parent="1" source="pCUsaN8ie-l78svKAJLq-120" target="pCUsaN8ie-l78svKAJLq-141" edge="1">
          <mxGeometry relative="1" as="geometry" />
        </mxCell>
        <mxCell id="pCUsaN8ie-l78svKAJLq-120" value="*mbridge" style="rounded=0;whiteSpace=wrap;html=1;" parent="1" vertex="1">
          <mxGeometry x="-133" y="980" width="160" height="20" as="geometry" />
        </mxCell>
        <mxCell id="pCUsaN8ie-l78svKAJLq-121" value="stats" style="rounded=0;whiteSpace=wrap;html=1;" parent="1" vertex="1">
          <mxGeometry x="-133" y="1000" width="160" height="20" as="geometry" />
        </mxCell>
        <mxCell id="pCUsaN8ie-l78svKAJLq-154" style="edgeStyle=orthogonalEdgeStyle;rounded=0;orthogonalLoop=1;jettySize=auto;html=1;exitX=1;exitY=0.25;exitDx=0;exitDy=0;entryX=0;entryY=0.5;entryDx=0;entryDy=0;fontSize=16;strokeWidth=1;" parent="1" source="pCUsaN8ie-l78svKAJLq-122" target="pCUsaN8ie-l78svKAJLq-145" edge="1">
          <mxGeometry relative="1" as="geometry" />
        </mxCell>
        <mxCell id="pCUsaN8ie-l78svKAJLq-122" value="struct stp *stp" style="rounded=0;whiteSpace=wrap;html=1;" parent="1" vertex="1">
          <mxGeometry x="-133" y="1020" width="160" height="20" as="geometry" />
        </mxCell>
        <mxCell id="pCUsaN8ie-l78svKAJLq-123" value="struct sset ports" style="rounded=0;whiteSpace=wrap;html=1;" parent="1" vertex="1">
          <mxGeometry x="-133" y="1040" width="160" height="20" as="geometry" />
        </mxCell>
        <mxCell id="pCUsaN8ie-l78svKAJLq-124" value="......" style="rounded=0;whiteSpace=wrap;html=1;" parent="1" vertex="1">
          <mxGeometry x="-133" y="1060" width="160" height="20" as="geometry" />
        </mxCell>
        <mxCell id="pCUsaN8ie-l78svKAJLq-126" value="struct rule_dpif" style="rounded=0;whiteSpace=wrap;html=1;" parent="1" vertex="1">
          <mxGeometry x="67" y="805" width="160" height="30" as="geometry" />
        </mxCell>
        <mxCell id="pCUsaN8ie-l78svKAJLq-153" style="edgeStyle=orthogonalEdgeStyle;rounded=0;orthogonalLoop=1;jettySize=auto;html=1;exitX=1;exitY=0.5;exitDx=0;exitDy=0;entryX=0;entryY=0.5;entryDx=0;entryDy=0;fontSize=16;strokeWidth=1;" parent="1" source="pCUsaN8ie-l78svKAJLq-127" target="pCUsaN8ie-l78svKAJLq-150" edge="1">
          <mxGeometry relative="1" as="geometry" />
        </mxCell>
        <mxCell id="pCUsaN8ie-l78svKAJLq-127" value="struct rule up" style="rounded=0;whiteSpace=wrap;html=1;" parent="1" vertex="1">
          <mxGeometry x="67" y="835" width="160" height="20" as="geometry" />
        </mxCell>
        <mxCell id="pCUsaN8ie-l78svKAJLq-129" value="......" style="rounded=0;whiteSpace=wrap;html=1;" parent="1" vertex="1">
          <mxGeometry x="67" y="855" width="160" height="20" as="geometry" />
        </mxCell>
        <mxCell id="pCUsaN8ie-l78svKAJLq-131" value="struct dpif_ipfix" style="rounded=0;whiteSpace=wrap;html=1;" parent="1" vertex="1">
          <mxGeometry x="70" y="912" width="160" height="30" as="geometry" />
        </mxCell>
        <mxCell id="pCUsaN8ie-l78svKAJLq-133" value="......" style="rounded=0;whiteSpace=wrap;html=1;" parent="1" vertex="1">
          <mxGeometry x="70" y="942" width="160" height="20" as="geometry" />
        </mxCell>
        <mxCell id="pCUsaN8ie-l78svKAJLq-134" value="struct netflow" style="rounded=0;whiteSpace=wrap;html=1;" parent="1" vertex="1">
          <mxGeometry x="450" y="912" width="160" height="30" as="geometry" />
        </mxCell>
        <mxCell id="pCUsaN8ie-l78svKAJLq-135" value="......" style="rounded=0;whiteSpace=wrap;html=1;" parent="1" vertex="1">
          <mxGeometry x="450" y="942" width="160" height="20" as="geometry" />
        </mxCell>
        <mxCell id="pCUsaN8ie-l78svKAJLq-136" value="struct dpif_sflow" style="rounded=0;whiteSpace=wrap;html=1;" parent="1" vertex="1">
          <mxGeometry x="260" y="912" width="160" height="30" as="geometry" />
        </mxCell>
        <mxCell id="pCUsaN8ie-l78svKAJLq-137" value="......" style="rounded=0;whiteSpace=wrap;html=1;" parent="1" vertex="1">
          <mxGeometry x="260" y="942" width="160" height="20" as="geometry" />
        </mxCell>
        <mxCell id="pCUsaN8ie-l78svKAJLq-141" value="struct mbridge" style="rounded=0;whiteSpace=wrap;html=1;" parent="1" vertex="1">
          <mxGeometry x="261" y="975" width="160" height="30" as="geometry" />
        </mxCell>
        <mxCell id="pCUsaN8ie-l78svKAJLq-142" value="struct mirror *mirrors[MAX]" style="rounded=0;whiteSpace=wrap;html=1;" parent="1" vertex="1">
          <mxGeometry x="261" y="1005" width="160" height="20" as="geometry" />
        </mxCell>
        <mxCell id="pCUsaN8ie-l78svKAJLq-144" value="......" style="rounded=0;whiteSpace=wrap;html=1;" parent="1" vertex="1">
          <mxGeometry x="261" y="1025" width="160" height="20" as="geometry" />
        </mxCell>
        <mxCell id="pCUsaN8ie-l78svKAJLq-145" value="struct stp" style="rounded=0;whiteSpace=wrap;html=1;" parent="1" vertex="1">
          <mxGeometry x="67" y="1010" width="160" height="30" as="geometry" />
        </mxCell>
        <mxCell id="pCUsaN8ie-l78svKAJLq-146" value="struct stp_port" style="rounded=0;whiteSpace=wrap;html=1;" parent="1" vertex="1">
          <mxGeometry x="67" y="1040" width="160" height="20" as="geometry" />
        </mxCell>
        <mxCell id="pCUsaN8ie-l78svKAJLq-147" value="......" style="rounded=0;whiteSpace=wrap;html=1;" parent="1" vertex="1">
          <mxGeometry x="67" y="1060" width="160" height="20" as="geometry" />
        </mxCell>
        <mxCell id="pCUsaN8ie-l78svKAJLq-150" value="struct rule" style="rounded=0;whiteSpace=wrap;html=1;" parent="1" vertex="1">
          <mxGeometry x="261" y="805" width="160" height="30" as="geometry" />
        </mxCell>
        <mxCell id="pCUsaN8ie-l78svKAJLq-151" value="struct rule_actions" style="rounded=0;whiteSpace=wrap;html=1;" parent="1" vertex="1">
          <mxGeometry x="261" y="835" width="160" height="20" as="geometry" />
        </mxCell>
        <mxCell id="pCUsaN8ie-l78svKAJLq-152" value="......" style="rounded=0;whiteSpace=wrap;html=1;" parent="1" vertex="1">
          <mxGeometry x="261" y="855" width="160" height="20" as="geometry" />
        </mxCell>
        <mxCell id="pCUsaN8ie-l78svKAJLq-155" value="struct dpif_backer" style="rounded=0;whiteSpace=wrap;html=1;" parent="1" vertex="1">
          <mxGeometry x="-133" y="1145" width="160" height="30" as="geometry" />
        </mxCell>
        <mxCell id="pCUsaN8ie-l78svKAJLq-156" value="char *type" style="rounded=0;whiteSpace=wrap;html=1;" parent="1" vertex="1">
          <mxGeometry x="-133" y="1175" width="160" height="20" as="geometry" />
        </mxCell>
        <mxCell id="pCUsaN8ie-l78svKAJLq-157" value="int refcount" style="rounded=0;whiteSpace=wrap;html=1;" parent="1" vertex="1">
          <mxGeometry x="-133" y="1195" width="160" height="20" as="geometry" />
        </mxCell>
        <mxCell id="pCUsaN8ie-l78svKAJLq-220" style="edgeStyle=orthogonalEdgeStyle;rounded=0;orthogonalLoop=1;jettySize=auto;html=1;exitX=1;exitY=0.5;exitDx=0;exitDy=0;entryX=0.5;entryY=0;entryDx=0;entryDy=0;fontSize=16;strokeWidth=1;" parent="1" source="pCUsaN8ie-l78svKAJLq-158" target="pCUsaN8ie-l78svKAJLq-187" edge="1">
          <mxGeometry relative="1" as="geometry">
            <Array as="points">
              <mxPoint x="40" y="1225" />
              <mxPoint x="40" y="1130" />
              <mxPoint x="390" y="1130" />
            </Array>
          </mxGeometry>
        </mxCell>
        <mxCell id="pCUsaN8ie-l78svKAJLq-158" value="*dpif" style="rounded=0;whiteSpace=wrap;html=1;" parent="1" vertex="1">
          <mxGeometry x="-133" y="1215" width="160" height="20" as="geometry" />
        </mxCell>
        <mxCell id="pCUsaN8ie-l78svKAJLq-219" style="edgeStyle=orthogonalEdgeStyle;rounded=0;orthogonalLoop=1;jettySize=auto;html=1;exitX=1;exitY=0.5;exitDx=0;exitDy=0;entryX=0;entryY=0.5;entryDx=0;entryDy=0;fontSize=16;strokeWidth=1;" parent="1" source="pCUsaN8ie-l78svKAJLq-159" target="pCUsaN8ie-l78svKAJLq-200" edge="1">
          <mxGeometry relative="1" as="geometry" />
        </mxCell>
        <mxCell id="pCUsaN8ie-l78svKAJLq-159" value="*udpif" style="rounded=0;whiteSpace=wrap;html=1;" parent="1" vertex="1">
          <mxGeometry x="-133" y="1235" width="160" height="20" as="geometry" />
        </mxCell>
        <mxCell id="pCUsaN8ie-l78svKAJLq-160" value="......" style="rounded=0;whiteSpace=wrap;html=1;" parent="1" vertex="1">
          <mxGeometry x="-133" y="1255" width="160" height="20" as="geometry" />
        </mxCell>
        <mxCell id="pCUsaN8ie-l78svKAJLq-161" value="struct id_pool *meter_ids" style="rounded=0;whiteSpace=wrap;html=1;" parent="1" vertex="1">
          <mxGeometry x="-133" y="1275" width="160" height="20" as="geometry" />
        </mxCell>
        <mxCell id="pCUsaN8ie-l78svKAJLq-162" value="struct id_pool *tp_ids" style="rounded=0;whiteSpace=wrap;html=1;" parent="1" vertex="1">
          <mxGeometry x="-133" y="1295" width="160" height="20" as="geometry" />
        </mxCell>
        <mxCell id="pCUsaN8ie-l78svKAJLq-163" value="struct cmap ct_zones" style="rounded=0;whiteSpace=wrap;html=1;" parent="1" vertex="1">
          <mxGeometry x="-133" y="1315" width="160" height="20" as="geometry" />
        </mxCell>
        <mxCell id="pCUsaN8ie-l78svKAJLq-164" value="struct hmap ct_tps" style="rounded=0;whiteSpace=wrap;html=1;" parent="1" vertex="1">
          <mxGeometry x="-133" y="1335" width="160" height="20" as="geometry" />
        </mxCell>
        <mxCell id="pCUsaN8ie-l78svKAJLq-165" value="......" style="rounded=0;whiteSpace=wrap;html=1;" parent="1" vertex="1">
          <mxGeometry x="-133" y="1355" width="160" height="20" as="geometry" />
        </mxCell>
        <mxCell id="pCUsaN8ie-l78svKAJLq-175" value="" style="endArrow=none;dashed=1;html=1;strokeWidth=1;rounded=0;fontSize=16;" parent="1" edge="1">
          <mxGeometry width="50" height="50" relative="1" as="geometry">
            <mxPoint x="-240" y="1100" as="sourcePoint" />
            <mxPoint x="760" y="1100" as="targetPoint" />
          </mxGeometry>
        </mxCell>
        <mxCell id="pCUsaN8ie-l78svKAJLq-187" value="struct dpif" style="rounded=0;whiteSpace=wrap;html=1;" parent="1" vertex="1">
          <mxGeometry x="310" y="1190" width="160" height="30" as="geometry" />
        </mxCell>
        <mxCell id="pCUsaN8ie-l78svKAJLq-224" style="edgeStyle=orthogonalEdgeStyle;rounded=0;orthogonalLoop=1;jettySize=auto;html=1;exitX=1;exitY=0.5;exitDx=0;exitDy=0;entryX=0;entryY=0.5;entryDx=0;entryDy=0;fontSize=16;strokeWidth=1;" parent="1" source="pCUsaN8ie-l78svKAJLq-188" target="pCUsaN8ie-l78svKAJLq-222" edge="1">
          <mxGeometry relative="1" as="geometry" />
        </mxCell>
        <mxCell id="pCUsaN8ie-l78svKAJLq-188" value="struct dpif_class *" style="rounded=0;whiteSpace=wrap;html=1;" parent="1" vertex="1">
          <mxGeometry x="310" y="1220" width="160" height="20" as="geometry" />
        </mxCell>
        <mxCell id="pCUsaN8ie-l78svKAJLq-189" value="char *base_name" style="rounded=0;whiteSpace=wrap;html=1;" parent="1" vertex="1">
          <mxGeometry x="310" y="1240" width="160" height="20" as="geometry" />
        </mxCell>
        <mxCell id="pCUsaN8ie-l78svKAJLq-190" value="char *full_name" style="rounded=0;whiteSpace=wrap;html=1;" parent="1" vertex="1">
          <mxGeometry x="310" y="1260" width="160" height="20" as="geometry" />
        </mxCell>
        <mxCell id="pCUsaN8ie-l78svKAJLq-191" value="netflow_engine_id" style="rounded=0;whiteSpace=wrap;html=1;" parent="1" vertex="1">
          <mxGeometry x="310" y="1280" width="160" height="20" as="geometry" />
        </mxCell>
        <mxCell id="pCUsaN8ie-l78svKAJLq-192" value="netflow_engine_type" style="rounded=0;whiteSpace=wrap;html=1;" parent="1" vertex="1">
          <mxGeometry x="310" y="1300" width="160" height="20" as="geometry" />
        </mxCell>
        <mxCell id="pCUsaN8ie-l78svKAJLq-193" value="current_ms" style="rounded=0;whiteSpace=wrap;html=1;" parent="1" vertex="1">
          <mxGeometry x="310" y="1320" width="160" height="20" as="geometry" />
        </mxCell>
        <mxCell id="pCUsaN8ie-l78svKAJLq-200" value="struct udpif" style="rounded=0;whiteSpace=wrap;html=1;" parent="1" vertex="1">
          <mxGeometry x="90" y="1145" width="160" height="30" as="geometry" />
        </mxCell>
        <mxCell id="pCUsaN8ie-l78svKAJLq-201" value="struct ovs_list list_node" style="rounded=0;whiteSpace=wrap;html=1;" parent="1" vertex="1">
          <mxGeometry x="90" y="1175" width="160" height="20" as="geometry" />
        </mxCell>
        <mxCell id="pCUsaN8ie-l78svKAJLq-215" style="edgeStyle=orthogonalEdgeStyle;rounded=0;orthogonalLoop=1;jettySize=auto;html=1;exitX=1;exitY=0.5;exitDx=0;exitDy=0;entryX=0;entryY=0.5;entryDx=0;entryDy=0;fontSize=16;strokeWidth=1;" parent="1" source="pCUsaN8ie-l78svKAJLq-202" target="pCUsaN8ie-l78svKAJLq-187" edge="1">
          <mxGeometry relative="1" as="geometry" />
        </mxCell>
        <mxCell id="pCUsaN8ie-l78svKAJLq-202" value="*dpif" style="rounded=0;whiteSpace=wrap;html=1;" parent="1" vertex="1">
          <mxGeometry x="90" y="1195" width="160" height="20" as="geometry" />
        </mxCell>
        <mxCell id="pCUsaN8ie-l78svKAJLq-221" style="edgeStyle=orthogonalEdgeStyle;rounded=0;orthogonalLoop=1;jettySize=auto;html=1;exitX=0;exitY=0.5;exitDx=0;exitDy=0;fontSize=16;strokeWidth=1;entryX=0;entryY=0.25;entryDx=0;entryDy=0;" parent="1" source="pCUsaN8ie-l78svKAJLq-203" target="pCUsaN8ie-l78svKAJLq-96" edge="1">
          <mxGeometry relative="1" as="geometry">
            <mxPoint x="-190" y="778.11767578125" as="targetPoint" />
            <Array as="points">
              <mxPoint x="70" y="1225" />
              <mxPoint x="70" y="1120" />
              <mxPoint x="-170" y="1120" />
              <mxPoint x="-170" y="785" />
            </Array>
          </mxGeometry>
        </mxCell>
        <mxCell id="pCUsaN8ie-l78svKAJLq-203" value="*backer" style="rounded=0;whiteSpace=wrap;html=1;" parent="1" vertex="1">
          <mxGeometry x="90" y="1215" width="160" height="20" as="geometry" />
        </mxCell>
        <mxCell id="pCUsaN8ie-l78svKAJLq-204" value="struct handler *handlers" style="rounded=0;whiteSpace=wrap;html=1;" parent="1" vertex="1">
          <mxGeometry x="90" y="1235" width="160" height="20" as="geometry" />
        </mxCell>
        <mxCell id="pCUsaN8ie-l78svKAJLq-205" value="struct revalidator *" style="rounded=0;whiteSpace=wrap;html=1;" parent="1" vertex="1">
          <mxGeometry x="90" y="1255" width="160" height="20" as="geometry" />
        </mxCell>
        <mxCell id="pCUsaN8ie-l78svKAJLq-206" value="......" style="rounded=0;whiteSpace=wrap;html=1;" parent="1" vertex="1">
          <mxGeometry x="90" y="1275" width="160" height="20" as="geometry" />
        </mxCell>
        <mxCell id="pCUsaN8ie-l78svKAJLq-207" value="struct umap *ukeys" style="rounded=0;whiteSpace=wrap;html=1;" parent="1" vertex="1">
          <mxGeometry x="90" y="1295" width="160" height="20" as="geometry" />
        </mxCell>
        <mxCell id="pCUsaN8ie-l78svKAJLq-208" value="max_n_flows" style="rounded=0;whiteSpace=wrap;html=1;" parent="1" vertex="1">
          <mxGeometry x="90" y="1315" width="160" height="20" as="geometry" />
        </mxCell>
        <mxCell id="pCUsaN8ie-l78svKAJLq-209" value="avg_n_flows" style="rounded=0;whiteSpace=wrap;html=1;" parent="1" vertex="1">
          <mxGeometry x="90" y="1335" width="160" height="20" as="geometry" />
        </mxCell>
        <mxCell id="pCUsaN8ie-l78svKAJLq-210" value="flow_limit" style="rounded=0;whiteSpace=wrap;html=1;" parent="1" vertex="1">
          <mxGeometry x="90" y="1355" width="160" height="20" as="geometry" />
        </mxCell>
        <mxCell id="pCUsaN8ie-l78svKAJLq-213" value="n_flows" style="rounded=0;whiteSpace=wrap;html=1;" parent="1" vertex="1">
          <mxGeometry x="90" y="1375" width="160" height="20" as="geometry" />
        </mxCell>
        <mxCell id="pCUsaN8ie-l78svKAJLq-214" value="......" style="rounded=0;whiteSpace=wrap;html=1;" parent="1" vertex="1">
          <mxGeometry x="90" y="1395" width="160" height="20" as="geometry" />
        </mxCell>
        <mxCell id="pCUsaN8ie-l78svKAJLq-222" value="struct dpif_class" style="rounded=0;whiteSpace=wrap;html=1;" parent="1" vertex="1">
          <mxGeometry x="530" y="1190" width="160" height="30" as="geometry" />
        </mxCell>
        <mxCell id="pCUsaN8ie-l78svKAJLq-243" style="edgeStyle=orthogonalEdgeStyle;rounded=0;orthogonalLoop=1;jettySize=auto;html=1;exitX=0.5;exitY=1;exitDx=0;exitDy=0;entryX=0.5;entryY=0;entryDx=0;entryDy=0;fontSize=16;strokeWidth=1;" parent="1" source="pCUsaN8ie-l78svKAJLq-223" target="pCUsaN8ie-l78svKAJLq-240" edge="1">
          <mxGeometry relative="1" as="geometry" />
        </mxCell>
        <mxCell id="pCUsaN8ie-l78svKAJLq-244" style="edgeStyle=orthogonalEdgeStyle;rounded=0;orthogonalLoop=1;jettySize=auto;html=1;exitX=0.5;exitY=1;exitDx=0;exitDy=0;entryX=0.5;entryY=0;entryDx=0;entryDy=0;fontSize=16;strokeWidth=1;" parent="1" source="pCUsaN8ie-l78svKAJLq-223" target="pCUsaN8ie-l78svKAJLq-242" edge="1">
          <mxGeometry relative="1" as="geometry" />
        </mxCell>
        <mxCell id="pCUsaN8ie-l78svKAJLq-223" value="......" style="rounded=0;whiteSpace=wrap;html=1;" parent="1" vertex="1">
          <mxGeometry x="530" y="1220" width="160" height="20" as="geometry" />
        </mxCell>
        <mxCell id="pCUsaN8ie-l78svKAJLq-225" value="" style="endArrow=none;dashed=1;html=1;strokeWidth=1;rounded=0;fontSize=16;" parent="1" edge="1">
          <mxGeometry width="50" height="50" relative="1" as="geometry">
            <mxPoint x="-240" y="1440" as="sourcePoint" />
            <mxPoint x="760" y="1440" as="targetPoint" />
          </mxGeometry>
        </mxCell>
        <mxCell id="pCUsaN8ie-l78svKAJLq-226" value="struct dpif_netdev" style="rounded=0;whiteSpace=wrap;html=1;" parent="1" vertex="1">
          <mxGeometry x="309" y="1471" width="160" height="30" as="geometry" />
        </mxCell>
        <mxCell id="pCUsaN8ie-l78svKAJLq-245" style="edgeStyle=orthogonalEdgeStyle;rounded=0;orthogonalLoop=1;jettySize=auto;html=1;exitX=0;exitY=0.5;exitDx=0;exitDy=0;entryX=0;entryY=0.75;entryDx=0;entryDy=0;fontSize=16;strokeWidth=1;" parent="1" source="pCUsaN8ie-l78svKAJLq-227" target="pCUsaN8ie-l78svKAJLq-187" edge="1">
          <mxGeometry relative="1" as="geometry" />
        </mxCell>
        <mxCell id="pCUsaN8ie-l78svKAJLq-227" value="dpif" style="rounded=0;whiteSpace=wrap;html=1;" parent="1" vertex="1">
          <mxGeometry x="309" y="1501" width="160" height="20" as="geometry" />
        </mxCell>
        <mxCell id="Ef68fgs5h4j_hSDtG3T8-12" style="edgeStyle=orthogonalEdgeStyle;rounded=0;orthogonalLoop=1;jettySize=auto;html=1;exitX=0;exitY=0.5;exitDx=0;exitDy=0;entryX=1;entryY=0.5;entryDx=0;entryDy=0;" edge="1" parent="1" source="pCUsaN8ie-l78svKAJLq-228" target="Ef68fgs5h4j_hSDtG3T8-1">
          <mxGeometry relative="1" as="geometry" />
        </mxCell>
        <mxCell id="pCUsaN8ie-l78svKAJLq-228" value="*dp" style="rounded=0;whiteSpace=wrap;html=1;" parent="1" vertex="1">
          <mxGeometry x="309" y="1521" width="160" height="20" as="geometry" />
        </mxCell>
        <mxCell id="pCUsaN8ie-l78svKAJLq-229" value="last_port_seq" style="rounded=0;whiteSpace=wrap;html=1;" parent="1" vertex="1">
          <mxGeometry x="309" y="1541" width="160" height="20" as="geometry" />
        </mxCell>
        <mxCell id="pCUsaN8ie-l78svKAJLq-233" value="struct dpif_netlink" style="rounded=0;whiteSpace=wrap;html=1;" parent="1" vertex="1">
          <mxGeometry x="522" y="1471" width="160" height="30" as="geometry" />
        </mxCell>
        <mxCell id="pCUsaN8ie-l78svKAJLq-246" style="edgeStyle=orthogonalEdgeStyle;rounded=0;orthogonalLoop=1;jettySize=auto;html=1;exitX=0;exitY=0.5;exitDx=0;exitDy=0;entryX=1;entryY=0.5;entryDx=0;entryDy=0;fontSize=16;strokeWidth=1;" parent="1" source="pCUsaN8ie-l78svKAJLq-234" target="pCUsaN8ie-l78svKAJLq-187" edge="1">
          <mxGeometry relative="1" as="geometry">
            <Array as="points">
              <mxPoint x="490" y="1511" />
              <mxPoint x="490" y="1205" />
            </Array>
          </mxGeometry>
        </mxCell>
        <mxCell id="pCUsaN8ie-l78svKAJLq-234" value="dpif" style="rounded=0;whiteSpace=wrap;html=1;" parent="1" vertex="1">
          <mxGeometry x="522" y="1501" width="160" height="20" as="geometry" />
        </mxCell>
        <mxCell id="pCUsaN8ie-l78svKAJLq-235" value="dp_ifindex" style="rounded=0;whiteSpace=wrap;html=1;" parent="1" vertex="1">
          <mxGeometry x="522" y="1521" width="160" height="20" as="geometry" />
        </mxCell>
        <mxCell id="pCUsaN8ie-l78svKAJLq-236" value="user_features" style="rounded=0;whiteSpace=wrap;html=1;" parent="1" vertex="1">
          <mxGeometry x="522" y="1541" width="160" height="20" as="geometry" />
        </mxCell>
        <mxCell id="pCUsaN8ie-l78svKAJLq-237" value="struct dpif_handler *" style="rounded=0;whiteSpace=wrap;html=1;" parent="1" vertex="1">
          <mxGeometry x="522" y="1561" width="160" height="20" as="geometry" />
        </mxCell>
        <mxCell id="pCUsaN8ie-l78svKAJLq-238" value="struct dpif_channel *" style="rounded=0;whiteSpace=wrap;html=1;" parent="1" vertex="1">
          <mxGeometry x="522" y="1581" width="160" height="20" as="geometry" />
        </mxCell>
        <mxCell id="pCUsaN8ie-l78svKAJLq-239" value="struct nl_sock *" style="rounded=0;whiteSpace=wrap;html=1;" parent="1" vertex="1">
          <mxGeometry x="522" y="1601" width="160" height="20" as="geometry" />
        </mxCell>
        <mxCell id="pCUsaN8ie-l78svKAJLq-247" style="edgeStyle=orthogonalEdgeStyle;rounded=0;orthogonalLoop=1;jettySize=auto;html=1;exitX=0.5;exitY=1;exitDx=0;exitDy=0;fontSize=16;strokeWidth=1;" parent="1" source="pCUsaN8ie-l78svKAJLq-240" target="pCUsaN8ie-l78svKAJLq-226" edge="1">
          <mxGeometry relative="1" as="geometry" />
        </mxCell>
        <mxCell id="pCUsaN8ie-l78svKAJLq-240" value="dpif_netdev_class" style="rounded=0;whiteSpace=wrap;html=1;" parent="1" vertex="1">
          <mxGeometry x="496" y="1275" width="108" height="30" as="geometry" />
        </mxCell>
        <mxCell id="pCUsaN8ie-l78svKAJLq-248" style="edgeStyle=orthogonalEdgeStyle;rounded=0;orthogonalLoop=1;jettySize=auto;html=1;exitX=0.5;exitY=1;exitDx=0;exitDy=0;entryX=0.5;entryY=0;entryDx=0;entryDy=0;fontSize=16;strokeWidth=1;" parent="1" source="pCUsaN8ie-l78svKAJLq-242" target="pCUsaN8ie-l78svKAJLq-233" edge="1">
          <mxGeometry relative="1" as="geometry" />
        </mxCell>
        <mxCell id="pCUsaN8ie-l78svKAJLq-242" value="dpif_netlink_class" style="rounded=0;whiteSpace=wrap;html=1;" parent="1" vertex="1">
          <mxGeometry x="626" y="1275" width="108" height="30" as="geometry" />
        </mxCell>
        <mxCell id="Ef68fgs5h4j_hSDtG3T8-1" value="struct dp_netdev" style="rounded=0;whiteSpace=wrap;html=1;" vertex="1" parent="1">
          <mxGeometry x="90" y="1471" width="160" height="30" as="geometry" />
        </mxCell>
        <mxCell id="Ef68fgs5h4j_hSDtG3T8-14" style="edgeStyle=orthogonalEdgeStyle;rounded=0;orthogonalLoop=1;jettySize=auto;html=1;exitX=0;exitY=0.25;exitDx=0;exitDy=0;entryX=0.75;entryY=1;entryDx=0;entryDy=0;" edge="1" parent="1" source="Ef68fgs5h4j_hSDtG3T8-2" target="pCUsaN8ie-l78svKAJLq-240">
          <mxGeometry relative="1" as="geometry">
            <Array as="points">
              <mxPoint x="90" y="1511" />
              <mxPoint x="70" y="1511" />
              <mxPoint x="70" y="1430" />
              <mxPoint x="577" y="1430" />
            </Array>
          </mxGeometry>
        </mxCell>
        <mxCell id="Ef68fgs5h4j_hSDtG3T8-2" value="*class" style="rounded=0;whiteSpace=wrap;html=1;" vertex="1" parent="1">
          <mxGeometry x="90" y="1501" width="160" height="20" as="geometry" />
        </mxCell>
        <mxCell id="Ef68fgs5h4j_hSDtG3T8-3" value="name" style="rounded=0;whiteSpace=wrap;html=1;" vertex="1" parent="1">
          <mxGeometry x="90" y="1521" width="160" height="20" as="geometry" />
        </mxCell>
        <mxCell id="Ef68fgs5h4j_hSDtG3T8-4" value="ref_cnt" style="rounded=0;whiteSpace=wrap;html=1;" vertex="1" parent="1">
          <mxGeometry x="90" y="1541" width="160" height="20" as="geometry" />
        </mxCell>
        <mxCell id="Ef68fgs5h4j_hSDtG3T8-5" value="struct hmap ports" style="rounded=0;whiteSpace=wrap;html=1;" vertex="1" parent="1">
          <mxGeometry x="90" y="1581" width="160" height="20" as="geometry" />
        </mxCell>
        <mxCell id="Ef68fgs5h4j_hSDtG3T8-6" value="struct cmap meters" style="rounded=0;whiteSpace=wrap;html=1;" vertex="1" parent="1">
          <mxGeometry x="90" y="1601" width="160" height="20" as="geometry" />
        </mxCell>
        <mxCell id="Ef68fgs5h4j_hSDtG3T8-7" value="upcall_callback *upcall_cb" style="rounded=0;whiteSpace=wrap;html=1;" vertex="1" parent="1">
          <mxGeometry x="90" y="1621" width="160" height="20" as="geometry" />
        </mxCell>
        <mxCell id="Ef68fgs5h4j_hSDtG3T8-8" value="......" style="rounded=0;whiteSpace=wrap;html=1;" vertex="1" parent="1">
          <mxGeometry x="90" y="1561" width="160" height="20" as="geometry" />
        </mxCell>
        <mxCell id="Ef68fgs5h4j_hSDtG3T8-9" value="struct conntrack *conntrack" style="rounded=0;whiteSpace=wrap;html=1;" vertex="1" parent="1">
          <mxGeometry x="90" y="1641" width="160" height="20" as="geometry" />
        </mxCell>
        <mxCell id="Ef68fgs5h4j_hSDtG3T8-10" value="struct cmap tx_bonds" style="rounded=0;whiteSpace=wrap;html=1;" vertex="1" parent="1">
          <mxGeometry x="90" y="1661" width="160" height="20" as="geometry" />
        </mxCell>
        <mxCell id="Ef68fgs5h4j_hSDtG3T8-11" value="......" style="rounded=0;whiteSpace=wrap;html=1;" vertex="1" parent="1">
          <mxGeometry x="90" y="1681" width="160" height="20" as="geometry" />
        </mxCell>
        <mxCell id="Ef68fgs5h4j_hSDtG3T8-13" value="......" style="rounded=0;whiteSpace=wrap;html=1;" vertex="1" parent="1">
          <mxGeometry x="522" y="1621" width="160" height="20" as="geometry" />
        </mxCell>
        <mxCell id="Ef68fgs5h4j_hSDtG3T8-15" value="" style="endArrow=none;dashed=1;html=1;strokeWidth=1;rounded=0;fontSize=16;" edge="1" parent="1">
          <mxGeometry width="50" height="50" relative="1" as="geometry">
            <mxPoint x="-240" y="1730" as="sourcePoint" />
            <mxPoint x="760" y="1730" as="targetPoint" />
          </mxGeometry>
        </mxCell>
        <mxCell id="Ef68fgs5h4j_hSDtG3T8-16" value="struct netdev" style="rounded=0;whiteSpace=wrap;html=1;" vertex="1" parent="1">
          <mxGeometry x="-146" y="1761" width="160" height="30" as="geometry" />
        </mxCell>
        <mxCell id="Ef68fgs5h4j_hSDtG3T8-29" style="edgeStyle=orthogonalEdgeStyle;rounded=0;orthogonalLoop=1;jettySize=auto;html=1;exitX=1;exitY=0.5;exitDx=0;exitDy=0;entryX=1;entryY=0.5;entryDx=0;entryDy=0;" edge="1" parent="1" source="Ef68fgs5h4j_hSDtG3T8-17" target="Ef68fgs5h4j_hSDtG3T8-27">
          <mxGeometry relative="1" as="geometry" />
        </mxCell>
        <mxCell id="Ef68fgs5h4j_hSDtG3T8-17" value="*netdev_class" style="rounded=0;whiteSpace=wrap;html=1;" vertex="1" parent="1">
          <mxGeometry x="-146" y="1791" width="160" height="20" as="geometry" />
        </mxCell>
        <mxCell id="Ef68fgs5h4j_hSDtG3T8-18" value="char *dpif_type" style="rounded=0;whiteSpace=wrap;html=1;" vertex="1" parent="1">
          <mxGeometry x="-146" y="1811" width="160" height="20" as="geometry" />
        </mxCell>
        <mxCell id="Ef68fgs5h4j_hSDtG3T8-19" value="ref_cnt" style="rounded=0;whiteSpace=wrap;html=1;" vertex="1" parent="1">
          <mxGeometry x="-146" y="1831" width="160" height="20" as="geometry" />
        </mxCell>
        <mxCell id="Ef68fgs5h4j_hSDtG3T8-23" value="......" style="rounded=0;whiteSpace=wrap;html=1;" vertex="1" parent="1">
          <mxGeometry x="-146" y="1851" width="160" height="20" as="geometry" />
        </mxCell>
        <mxCell id="Ef68fgs5h4j_hSDtG3T8-27" value="struct netdev_class" style="rounded=0;whiteSpace=wrap;html=1;" vertex="1" parent="1">
          <mxGeometry x="-146" y="2047" width="160" height="30" as="geometry" />
        </mxCell>
        <mxCell id="Ef68fgs5h4j_hSDtG3T8-28" value="......" style="rounded=0;whiteSpace=wrap;html=1;" vertex="1" parent="1">
          <mxGeometry x="-146" y="2097" width="160" height="20" as="geometry" />
        </mxCell>
        <mxCell id="Ef68fgs5h4j_hSDtG3T8-87" style="edgeStyle=orthogonalEdgeStyle;rounded=0;orthogonalLoop=1;jettySize=auto;html=1;exitX=1;exitY=0.5;exitDx=0;exitDy=0;entryX=0;entryY=0.5;entryDx=0;entryDy=0;" edge="1" parent="1" source="Ef68fgs5h4j_hSDtG3T8-30" target="Ef68fgs5h4j_hSDtG3T8-31">
          <mxGeometry relative="1" as="geometry" />
        </mxCell>
        <mxCell id="Ef68fgs5h4j_hSDtG3T8-90" style="edgeStyle=orthogonalEdgeStyle;rounded=0;orthogonalLoop=1;jettySize=auto;html=1;exitX=1;exitY=0.5;exitDx=0;exitDy=0;entryX=0;entryY=0.5;entryDx=0;entryDy=0;" edge="1" parent="1" source="Ef68fgs5h4j_hSDtG3T8-30" target="Ef68fgs5h4j_hSDtG3T8-36">
          <mxGeometry relative="1" as="geometry" />
        </mxCell>
        <mxCell id="Ef68fgs5h4j_hSDtG3T8-91" style="edgeStyle=orthogonalEdgeStyle;rounded=0;orthogonalLoop=1;jettySize=auto;html=1;exitX=1;exitY=0.5;exitDx=0;exitDy=0;entryX=0;entryY=0.5;entryDx=0;entryDy=0;" edge="1" parent="1" source="Ef68fgs5h4j_hSDtG3T8-30" target="Ef68fgs5h4j_hSDtG3T8-38">
          <mxGeometry relative="1" as="geometry" />
        </mxCell>
        <mxCell id="Ef68fgs5h4j_hSDtG3T8-100" style="edgeStyle=orthogonalEdgeStyle;rounded=0;orthogonalLoop=1;jettySize=auto;html=1;exitX=1;exitY=0.5;exitDx=0;exitDy=0;entryX=0;entryY=0.5;entryDx=0;entryDy=0;" edge="1" parent="1" source="Ef68fgs5h4j_hSDtG3T8-30" target="Ef68fgs5h4j_hSDtG3T8-34">
          <mxGeometry relative="1" as="geometry" />
        </mxCell>
        <mxCell id="Ef68fgs5h4j_hSDtG3T8-131" style="edgeStyle=orthogonalEdgeStyle;rounded=0;orthogonalLoop=1;jettySize=auto;html=1;exitX=1;exitY=0.5;exitDx=0;exitDy=0;entryX=0;entryY=0.5;entryDx=0;entryDy=0;" edge="1" parent="1" source="Ef68fgs5h4j_hSDtG3T8-30" target="Ef68fgs5h4j_hSDtG3T8-41">
          <mxGeometry relative="1" as="geometry">
            <Array as="points">
              <mxPoint x="50" y="2087" />
              <mxPoint x="50" y="2010" />
              <mxPoint x="280" y="2010" />
              <mxPoint x="280" y="1964" />
            </Array>
          </mxGeometry>
        </mxCell>
        <mxCell id="Ef68fgs5h4j_hSDtG3T8-132" style="edgeStyle=orthogonalEdgeStyle;rounded=0;orthogonalLoop=1;jettySize=auto;html=1;exitX=1;exitY=0.5;exitDx=0;exitDy=0;entryX=0;entryY=0.5;entryDx=0;entryDy=0;" edge="1" parent="1" source="Ef68fgs5h4j_hSDtG3T8-30" target="Ef68fgs5h4j_hSDtG3T8-49">
          <mxGeometry relative="1" as="geometry">
            <Array as="points">
              <mxPoint x="50" y="2087" />
              <mxPoint x="50" y="2010" />
              <mxPoint x="500" y="2010" />
              <mxPoint x="500" y="1964" />
            </Array>
          </mxGeometry>
        </mxCell>
        <mxCell id="Ef68fgs5h4j_hSDtG3T8-133" style="edgeStyle=orthogonalEdgeStyle;rounded=0;orthogonalLoop=1;jettySize=auto;html=1;exitX=1;exitY=0.5;exitDx=0;exitDy=0;entryX=0;entryY=0.5;entryDx=0;entryDy=0;" edge="1" parent="1" source="Ef68fgs5h4j_hSDtG3T8-30" target="Ef68fgs5h4j_hSDtG3T8-43">
          <mxGeometry relative="1" as="geometry">
            <Array as="points">
              <mxPoint x="280" y="2087" />
              <mxPoint x="280" y="2040" />
            </Array>
          </mxGeometry>
        </mxCell>
        <mxCell id="Ef68fgs5h4j_hSDtG3T8-134" style="edgeStyle=orthogonalEdgeStyle;rounded=0;orthogonalLoop=1;jettySize=auto;html=1;exitX=1;exitY=0.5;exitDx=0;exitDy=0;entryX=0;entryY=0.5;entryDx=0;entryDy=0;" edge="1" parent="1" source="Ef68fgs5h4j_hSDtG3T8-30" target="Ef68fgs5h4j_hSDtG3T8-51">
          <mxGeometry relative="1" as="geometry">
            <Array as="points">
              <mxPoint x="500" y="2087" />
              <mxPoint x="500" y="2040" />
            </Array>
          </mxGeometry>
        </mxCell>
        <mxCell id="Ef68fgs5h4j_hSDtG3T8-135" style="edgeStyle=orthogonalEdgeStyle;rounded=0;orthogonalLoop=1;jettySize=auto;html=1;exitX=1;exitY=0.5;exitDx=0;exitDy=0;entryX=0;entryY=0.5;entryDx=0;entryDy=0;" edge="1" parent="1" source="Ef68fgs5h4j_hSDtG3T8-30" target="Ef68fgs5h4j_hSDtG3T8-45">
          <mxGeometry relative="1" as="geometry">
            <Array as="points">
              <mxPoint x="50" y="2087" />
              <mxPoint x="50" y="2170" />
              <mxPoint x="280" y="2170" />
              <mxPoint x="280" y="2118" />
            </Array>
          </mxGeometry>
        </mxCell>
        <mxCell id="Ef68fgs5h4j_hSDtG3T8-136" style="edgeStyle=orthogonalEdgeStyle;rounded=0;orthogonalLoop=1;jettySize=auto;html=1;exitX=1;exitY=0.5;exitDx=0;exitDy=0;entryX=0;entryY=0.5;entryDx=0;entryDy=0;" edge="1" parent="1" source="Ef68fgs5h4j_hSDtG3T8-30" target="Ef68fgs5h4j_hSDtG3T8-53">
          <mxGeometry relative="1" as="geometry">
            <Array as="points">
              <mxPoint x="50" y="2087" />
              <mxPoint x="50" y="2170" />
              <mxPoint x="500" y="2170" />
              <mxPoint x="500" y="2118" />
            </Array>
          </mxGeometry>
        </mxCell>
        <mxCell id="Ef68fgs5h4j_hSDtG3T8-30" value="char *type" style="rounded=0;whiteSpace=wrap;html=1;" vertex="1" parent="1">
          <mxGeometry x="-146" y="2077" width="160" height="20" as="geometry" />
        </mxCell>
        <mxCell id="Ef68fgs5h4j_hSDtG3T8-31" value="netdev_linux_class" style="rounded=0;whiteSpace=wrap;html=1;" vertex="1" parent="1">
          <mxGeometry x="90" y="1949" width="160" height="30" as="geometry" />
        </mxCell>
        <mxCell id="Ef68fgs5h4j_hSDtG3T8-32" value="......" style="rounded=0;whiteSpace=wrap;html=1;" vertex="1" parent="1">
          <mxGeometry x="90" y="1979" width="160" height="20" as="geometry" />
        </mxCell>
        <mxCell id="Ef68fgs5h4j_hSDtG3T8-34" value="netdev_tap_class" style="rounded=0;whiteSpace=wrap;html=1;" vertex="1" parent="1">
          <mxGeometry x="90" y="2025" width="160" height="30" as="geometry" />
        </mxCell>
        <mxCell id="Ef68fgs5h4j_hSDtG3T8-35" value="......" style="rounded=0;whiteSpace=wrap;html=1;" vertex="1" parent="1">
          <mxGeometry x="90" y="2055" width="160" height="20" as="geometry" />
        </mxCell>
        <mxCell id="Ef68fgs5h4j_hSDtG3T8-36" value="netdev_internal_class" style="rounded=0;whiteSpace=wrap;html=1;" vertex="1" parent="1">
          <mxGeometry x="90" y="2103" width="160" height="30" as="geometry" />
        </mxCell>
        <mxCell id="Ef68fgs5h4j_hSDtG3T8-37" value="......" style="rounded=0;whiteSpace=wrap;html=1;" vertex="1" parent="1">
          <mxGeometry x="90" y="2133" width="160" height="20" as="geometry" />
        </mxCell>
        <mxCell id="Ef68fgs5h4j_hSDtG3T8-38" value="netdev_afxdp_class" style="rounded=0;whiteSpace=wrap;html=1;" vertex="1" parent="1">
          <mxGeometry x="90" y="2183" width="160" height="30" as="geometry" />
        </mxCell>
        <mxCell id="Ef68fgs5h4j_hSDtG3T8-39" value="......" style="rounded=0;whiteSpace=wrap;html=1;" vertex="1" parent="1">
          <mxGeometry x="90" y="2213" width="160" height="20" as="geometry" />
        </mxCell>
        <mxCell id="Ef68fgs5h4j_hSDtG3T8-41" value="dpdk_class" style="rounded=0;whiteSpace=wrap;html=1;" vertex="1" parent="1">
          <mxGeometry x="309" y="1949" width="160" height="30" as="geometry" />
        </mxCell>
        <mxCell id="Ef68fgs5h4j_hSDtG3T8-42" value="......" style="rounded=0;whiteSpace=wrap;html=1;" vertex="1" parent="1">
          <mxGeometry x="309" y="1979" width="160" height="20" as="geometry" />
        </mxCell>
        <mxCell id="Ef68fgs5h4j_hSDtG3T8-43" value="dpdk_vhost_class" style="rounded=0;whiteSpace=wrap;html=1;" vertex="1" parent="1">
          <mxGeometry x="309" y="2025" width="160" height="30" as="geometry" />
        </mxCell>
        <mxCell id="Ef68fgs5h4j_hSDtG3T8-44" value="......" style="rounded=0;whiteSpace=wrap;html=1;" vertex="1" parent="1">
          <mxGeometry x="309" y="2055" width="160" height="20" as="geometry" />
        </mxCell>
        <mxCell id="Ef68fgs5h4j_hSDtG3T8-45" value="dpdk_vhost_client_class" style="rounded=0;whiteSpace=wrap;html=1;" vertex="1" parent="1">
          <mxGeometry x="309" y="2103" width="160" height="30" as="geometry" />
        </mxCell>
        <mxCell id="Ef68fgs5h4j_hSDtG3T8-46" value="......" style="rounded=0;whiteSpace=wrap;html=1;" vertex="1" parent="1">
          <mxGeometry x="309" y="2133" width="160" height="20" as="geometry" />
        </mxCell>
        <mxCell id="Ef68fgs5h4j_hSDtG3T8-49" value="netdev_bsd_class" style="rounded=0;whiteSpace=wrap;html=1;" vertex="1" parent="1">
          <mxGeometry x="526" y="1949" width="160" height="30" as="geometry" />
        </mxCell>
        <mxCell id="Ef68fgs5h4j_hSDtG3T8-50" value="......" style="rounded=0;whiteSpace=wrap;html=1;" vertex="1" parent="1">
          <mxGeometry x="526" y="1979" width="160" height="20" as="geometry" />
        </mxCell>
        <mxCell id="Ef68fgs5h4j_hSDtG3T8-51" value="netdev_windows_class" style="rounded=0;whiteSpace=wrap;html=1;" vertex="1" parent="1">
          <mxGeometry x="526" y="2025" width="160" height="30" as="geometry" />
        </mxCell>
        <mxCell id="Ef68fgs5h4j_hSDtG3T8-52" value="......" style="rounded=0;whiteSpace=wrap;html=1;" vertex="1" parent="1">
          <mxGeometry x="526" y="2055" width="160" height="20" as="geometry" />
        </mxCell>
        <mxCell id="Ef68fgs5h4j_hSDtG3T8-53" value="dummy_class" style="rounded=0;whiteSpace=wrap;html=1;" vertex="1" parent="1">
          <mxGeometry x="526" y="2103" width="160" height="30" as="geometry" />
        </mxCell>
        <mxCell id="Ef68fgs5h4j_hSDtG3T8-54" value="......" style="rounded=0;whiteSpace=wrap;html=1;" vertex="1" parent="1">
          <mxGeometry x="526" y="2133" width="160" height="20" as="geometry" />
        </mxCell>
        <mxCell id="Ef68fgs5h4j_hSDtG3T8-66" value="struct vport_class" style="rounded=0;whiteSpace=wrap;html=1;" vertex="1" parent="1">
          <mxGeometry x="-146" y="2208" width="160" height="30" as="geometry" />
        </mxCell>
        <mxCell id="Ef68fgs5h4j_hSDtG3T8-67" value="......" style="rounded=0;whiteSpace=wrap;html=1;" vertex="1" parent="1">
          <mxGeometry x="-146" y="2258" width="160" height="20" as="geometry" />
        </mxCell>
        <mxCell id="Ef68fgs5h4j_hSDtG3T8-69" style="edgeStyle=orthogonalEdgeStyle;rounded=0;orthogonalLoop=1;jettySize=auto;html=1;exitX=0;exitY=0.5;exitDx=0;exitDy=0;entryX=0;entryY=0.5;entryDx=0;entryDy=0;" edge="1" parent="1" source="Ef68fgs5h4j_hSDtG3T8-68" target="Ef68fgs5h4j_hSDtG3T8-27">
          <mxGeometry relative="1" as="geometry" />
        </mxCell>
        <mxCell id="Ef68fgs5h4j_hSDtG3T8-98" style="edgeStyle=orthogonalEdgeStyle;rounded=0;orthogonalLoop=1;jettySize=auto;html=1;exitX=1;exitY=0.5;exitDx=0;exitDy=0;entryX=0.5;entryY=0;entryDx=0;entryDy=0;" edge="1" parent="1" source="Ef68fgs5h4j_hSDtG3T8-68" target="Ef68fgs5h4j_hSDtG3T8-74">
          <mxGeometry relative="1" as="geometry">
            <Array as="points">
              <mxPoint x="170" y="2248" />
            </Array>
          </mxGeometry>
        </mxCell>
        <mxCell id="Ef68fgs5h4j_hSDtG3T8-99" style="edgeStyle=orthogonalEdgeStyle;rounded=0;orthogonalLoop=1;jettySize=auto;html=1;exitX=1;exitY=0.5;exitDx=0;exitDy=0;entryX=0.5;entryY=0;entryDx=0;entryDy=0;" edge="1" parent="1" source="Ef68fgs5h4j_hSDtG3T8-68" target="Ef68fgs5h4j_hSDtG3T8-86">
          <mxGeometry relative="1" as="geometry">
            <Array as="points">
              <mxPoint x="380" y="2248" />
            </Array>
          </mxGeometry>
        </mxCell>
        <mxCell id="Ef68fgs5h4j_hSDtG3T8-68" value="netdev_class" style="rounded=0;whiteSpace=wrap;html=1;" vertex="1" parent="1">
          <mxGeometry x="-146" y="2238" width="160" height="20" as="geometry" />
        </mxCell>
        <mxCell id="Ef68fgs5h4j_hSDtG3T8-71" value="gre" style="rounded=0;whiteSpace=wrap;html=1;" vertex="1" parent="1">
          <mxGeometry x="90" y="2284" width="160" height="20" as="geometry" />
        </mxCell>
        <mxCell id="Ef68fgs5h4j_hSDtG3T8-74" value="geneve" style="rounded=0;whiteSpace=wrap;html=1;" vertex="1" parent="1">
          <mxGeometry x="90" y="2264" width="160" height="20" as="geometry" />
        </mxCell>
        <mxCell id="Ef68fgs5h4j_hSDtG3T8-75" value="gre" style="rounded=0;whiteSpace=wrap;html=1;" vertex="1" parent="1">
          <mxGeometry x="90" y="2324" width="160" height="20" as="geometry" />
        </mxCell>
        <mxCell id="Ef68fgs5h4j_hSDtG3T8-76" value="vxlan" style="rounded=0;whiteSpace=wrap;html=1;" vertex="1" parent="1">
          <mxGeometry x="90" y="2304" width="160" height="20" as="geometry" />
        </mxCell>
        <mxCell id="Ef68fgs5h4j_hSDtG3T8-77" value="stt" style="rounded=0;whiteSpace=wrap;html=1;" vertex="1" parent="1">
          <mxGeometry x="90" y="2364" width="160" height="20" as="geometry" />
        </mxCell>
        <mxCell id="Ef68fgs5h4j_hSDtG3T8-78" value="lisp" style="rounded=0;whiteSpace=wrap;html=1;" vertex="1" parent="1">
          <mxGeometry x="90" y="2344" width="160" height="20" as="geometry" />
        </mxCell>
        <mxCell id="Ef68fgs5h4j_hSDtG3T8-79" value="ip6erspan" style="rounded=0;whiteSpace=wrap;html=1;" vertex="1" parent="1">
          <mxGeometry x="90" y="2404" width="160" height="20" as="geometry" />
        </mxCell>
        <mxCell id="Ef68fgs5h4j_hSDtG3T8-80" value="erspan" style="rounded=0;whiteSpace=wrap;html=1;" vertex="1" parent="1">
          <mxGeometry x="90" y="2384" width="160" height="20" as="geometry" />
        </mxCell>
        <mxCell id="Ef68fgs5h4j_hSDtG3T8-82" value="gtpu" style="rounded=0;whiteSpace=wrap;html=1;" vertex="1" parent="1">
          <mxGeometry x="90" y="2444" width="160" height="20" as="geometry" />
        </mxCell>
        <mxCell id="Ef68fgs5h4j_hSDtG3T8-83" value="ip6gre" style="rounded=0;whiteSpace=wrap;html=1;" vertex="1" parent="1">
          <mxGeometry x="90" y="2424" width="160" height="20" as="geometry" />
        </mxCell>
        <mxCell id="Ef68fgs5h4j_hSDtG3T8-84" value="ip6erspan" style="rounded=0;whiteSpace=wrap;html=1;" vertex="1" parent="1">
          <mxGeometry x="90" y="2484" width="160" height="20" as="geometry" />
        </mxCell>
        <mxCell id="Ef68fgs5h4j_hSDtG3T8-85" value="bareudp" style="rounded=0;whiteSpace=wrap;html=1;" vertex="1" parent="1">
          <mxGeometry x="90" y="2464" width="160" height="20" as="geometry" />
        </mxCell>
        <mxCell id="Ef68fgs5h4j_hSDtG3T8-86" value="patch" style="rounded=0;whiteSpace=wrap;html=1;" vertex="1" parent="1">
          <mxGeometry x="300" y="2264" width="160" height="20" as="geometry" />
        </mxCell>
        <mxCell id="Ef68fgs5h4j_hSDtG3T8-138" style="edgeStyle=orthogonalEdgeStyle;rounded=0;orthogonalLoop=1;jettySize=auto;html=1;exitX=1;exitY=0.5;exitDx=0;exitDy=0;entryX=0.5;entryY=0;entryDx=0;entryDy=0;dashed=1;" edge="1" parent="1" source="Ef68fgs5h4j_hSDtG3T8-101" target="Ef68fgs5h4j_hSDtG3T8-137">
          <mxGeometry relative="1" as="geometry">
            <Array as="points">
              <mxPoint x="270" y="1776" />
              <mxPoint x="270" y="1930" />
              <mxPoint x="170" y="1930" />
            </Array>
          </mxGeometry>
        </mxCell>
        <mxCell id="Ef68fgs5h4j_hSDtG3T8-101" value="struct netdev_linux" style="rounded=0;whiteSpace=wrap;html=1;" vertex="1" parent="1">
          <mxGeometry x="90" y="1761" width="160" height="30" as="geometry" />
        </mxCell>
        <mxCell id="Ef68fgs5h4j_hSDtG3T8-124" style="edgeStyle=orthogonalEdgeStyle;rounded=0;orthogonalLoop=1;jettySize=auto;html=1;exitX=0;exitY=0.5;exitDx=0;exitDy=0;" edge="1" parent="1" source="Ef68fgs5h4j_hSDtG3T8-102" target="Ef68fgs5h4j_hSDtG3T8-16">
          <mxGeometry relative="1" as="geometry" />
        </mxCell>
        <mxCell id="Ef68fgs5h4j_hSDtG3T8-102" value="struct netdev up" style="rounded=0;whiteSpace=wrap;html=1;" vertex="1" parent="1">
          <mxGeometry x="90" y="1791" width="160" height="20" as="geometry" />
        </mxCell>
        <mxCell id="Ef68fgs5h4j_hSDtG3T8-105" value="......" style="rounded=0;whiteSpace=wrap;html=1;" vertex="1" parent="1">
          <mxGeometry x="90" y="1811" width="160" height="20" as="geometry" />
        </mxCell>
        <mxCell id="Ef68fgs5h4j_hSDtG3T8-143" style="edgeStyle=orthogonalEdgeStyle;rounded=0;orthogonalLoop=1;jettySize=auto;html=1;exitX=1;exitY=0.5;exitDx=0;exitDy=0;entryX=0.5;entryY=0;entryDx=0;entryDy=0;dashed=1;" edge="1" parent="1" source="Ef68fgs5h4j_hSDtG3T8-106" target="Ef68fgs5h4j_hSDtG3T8-142">
          <mxGeometry relative="1" as="geometry">
            <Array as="points">
              <mxPoint x="489" y="1776" />
              <mxPoint x="489" y="1930" />
              <mxPoint x="389" y="1930" />
            </Array>
          </mxGeometry>
        </mxCell>
        <mxCell id="Ef68fgs5h4j_hSDtG3T8-106" value="struct netdev_dpdk" style="rounded=0;whiteSpace=wrap;html=1;" vertex="1" parent="1">
          <mxGeometry x="309" y="1761" width="160" height="30" as="geometry" />
        </mxCell>
        <mxCell id="Ef68fgs5h4j_hSDtG3T8-127" style="edgeStyle=orthogonalEdgeStyle;rounded=0;orthogonalLoop=1;jettySize=auto;html=1;exitX=0;exitY=0.5;exitDx=0;exitDy=0;entryX=1;entryY=0.5;entryDx=0;entryDy=0;" edge="1" parent="1" source="Ef68fgs5h4j_hSDtG3T8-107" target="Ef68fgs5h4j_hSDtG3T8-16">
          <mxGeometry relative="1" as="geometry">
            <Array as="points">
              <mxPoint x="280" y="1801" />
              <mxPoint x="280" y="1750" />
              <mxPoint x="70" y="1750" />
              <mxPoint x="70" y="1776" />
            </Array>
          </mxGeometry>
        </mxCell>
        <mxCell id="Ef68fgs5h4j_hSDtG3T8-107" value="struct netdev up" style="rounded=0;whiteSpace=wrap;html=1;" vertex="1" parent="1">
          <mxGeometry x="309" y="1791" width="160" height="20" as="geometry" />
        </mxCell>
        <mxCell id="Ef68fgs5h4j_hSDtG3T8-108" value="......" style="rounded=0;whiteSpace=wrap;html=1;" vertex="1" parent="1">
          <mxGeometry x="309" y="1811" width="160" height="20" as="geometry" />
        </mxCell>
        <mxCell id="Ef68fgs5h4j_hSDtG3T8-140" style="edgeStyle=orthogonalEdgeStyle;rounded=0;orthogonalLoop=1;jettySize=auto;html=1;exitX=1;exitY=0.5;exitDx=0;exitDy=0;entryX=1;entryY=0.5;entryDx=0;entryDy=0;dashed=1;" edge="1" parent="1" source="Ef68fgs5h4j_hSDtG3T8-109" target="Ef68fgs5h4j_hSDtG3T8-49">
          <mxGeometry relative="1" as="geometry">
            <Array as="points">
              <mxPoint x="720" y="1776" />
              <mxPoint x="720" y="1964" />
            </Array>
          </mxGeometry>
        </mxCell>
        <mxCell id="Ef68fgs5h4j_hSDtG3T8-109" value="struct netdev_bsd" style="rounded=0;whiteSpace=wrap;html=1;" vertex="1" parent="1">
          <mxGeometry x="526" y="1761" width="160" height="30" as="geometry" />
        </mxCell>
        <mxCell id="Ef68fgs5h4j_hSDtG3T8-128" style="edgeStyle=orthogonalEdgeStyle;rounded=0;orthogonalLoop=1;jettySize=auto;html=1;exitX=0;exitY=0.5;exitDx=0;exitDy=0;entryX=1;entryY=0.5;entryDx=0;entryDy=0;" edge="1" parent="1" source="Ef68fgs5h4j_hSDtG3T8-110" target="Ef68fgs5h4j_hSDtG3T8-16">
          <mxGeometry relative="1" as="geometry">
            <Array as="points">
              <mxPoint x="500" y="1801" />
              <mxPoint x="500" y="1740" />
              <mxPoint x="50" y="1740" />
              <mxPoint x="50" y="1776" />
            </Array>
          </mxGeometry>
        </mxCell>
        <mxCell id="Ef68fgs5h4j_hSDtG3T8-110" value="struct netdev up" style="rounded=0;whiteSpace=wrap;html=1;" vertex="1" parent="1">
          <mxGeometry x="526" y="1791" width="160" height="20" as="geometry" />
        </mxCell>
        <mxCell id="Ef68fgs5h4j_hSDtG3T8-111" value="......" style="rounded=0;whiteSpace=wrap;html=1;" vertex="1" parent="1">
          <mxGeometry x="526" y="1811" width="160" height="20" as="geometry" />
        </mxCell>
        <mxCell id="Ef68fgs5h4j_hSDtG3T8-126" style="edgeStyle=orthogonalEdgeStyle;rounded=0;orthogonalLoop=1;jettySize=auto;html=1;exitX=0;exitY=0.5;exitDx=0;exitDy=0;entryX=1;entryY=0.5;entryDx=0;entryDy=0;" edge="1" parent="1" source="Ef68fgs5h4j_hSDtG3T8-115" target="Ef68fgs5h4j_hSDtG3T8-16">
          <mxGeometry relative="1" as="geometry" />
        </mxCell>
        <mxCell id="Ef68fgs5h4j_hSDtG3T8-139" style="edgeStyle=orthogonalEdgeStyle;rounded=0;orthogonalLoop=1;jettySize=auto;html=1;exitX=1;exitY=0.5;exitDx=0;exitDy=0;entryX=1;entryY=0.75;entryDx=0;entryDy=0;dashed=1;" edge="1" parent="1" source="Ef68fgs5h4j_hSDtG3T8-115" target="Ef68fgs5h4j_hSDtG3T8-51">
          <mxGeometry relative="1" as="geometry">
            <Array as="points">
              <mxPoint x="260" y="1869" />
              <mxPoint x="260" y="1850" />
              <mxPoint x="706" y="1850" />
              <mxPoint x="706" y="2048" />
            </Array>
          </mxGeometry>
        </mxCell>
        <mxCell id="Ef68fgs5h4j_hSDtG3T8-115" value="struct netdev_windows" style="rounded=0;whiteSpace=wrap;html=1;" vertex="1" parent="1">
          <mxGeometry x="90" y="1854" width="160" height="30" as="geometry" />
        </mxCell>
        <mxCell id="Ef68fgs5h4j_hSDtG3T8-116" value="struct netdev up" style="rounded=0;whiteSpace=wrap;html=1;" vertex="1" parent="1">
          <mxGeometry x="90" y="1884" width="160" height="20" as="geometry" />
        </mxCell>
        <mxCell id="Ef68fgs5h4j_hSDtG3T8-117" value="......" style="rounded=0;whiteSpace=wrap;html=1;" vertex="1" parent="1">
          <mxGeometry x="90" y="1904" width="160" height="20" as="geometry" />
        </mxCell>
        <mxCell id="Ef68fgs5h4j_hSDtG3T8-145" style="edgeStyle=orthogonalEdgeStyle;rounded=0;orthogonalLoop=1;jettySize=auto;html=1;exitX=1;exitY=0.5;exitDx=0;exitDy=0;entryX=1;entryY=0.5;entryDx=0;entryDy=0;dashed=1;" edge="1" parent="1" source="Ef68fgs5h4j_hSDtG3T8-118" target="Ef68fgs5h4j_hSDtG3T8-144">
          <mxGeometry relative="1" as="geometry">
            <Array as="points">
              <mxPoint x="510" y="1869" />
              <mxPoint x="510" y="2383" />
            </Array>
          </mxGeometry>
        </mxCell>
        <mxCell id="Ef68fgs5h4j_hSDtG3T8-118" value="struct netdev_vport" style="rounded=0;whiteSpace=wrap;html=1;" vertex="1" parent="1">
          <mxGeometry x="310" y="1854" width="160" height="30" as="geometry" />
        </mxCell>
        <mxCell id="Ef68fgs5h4j_hSDtG3T8-130" style="edgeStyle=orthogonalEdgeStyle;rounded=0;orthogonalLoop=1;jettySize=auto;html=1;exitX=0;exitY=0.5;exitDx=0;exitDy=0;entryX=1;entryY=0.5;entryDx=0;entryDy=0;" edge="1" parent="1" source="Ef68fgs5h4j_hSDtG3T8-119" target="Ef68fgs5h4j_hSDtG3T8-16">
          <mxGeometry relative="1" as="geometry">
            <mxPoint x="280" y="1940" as="targetPoint" />
            <Array as="points">
              <mxPoint x="280" y="1894" />
              <mxPoint x="280" y="1840" />
              <mxPoint x="50" y="1840" />
              <mxPoint x="50" y="1776" />
            </Array>
          </mxGeometry>
        </mxCell>
        <mxCell id="Ef68fgs5h4j_hSDtG3T8-119" value="struct netdev up" style="rounded=0;whiteSpace=wrap;html=1;" vertex="1" parent="1">
          <mxGeometry x="310" y="1884" width="160" height="20" as="geometry" />
        </mxCell>
        <mxCell id="Ef68fgs5h4j_hSDtG3T8-120" value="......" style="rounded=0;whiteSpace=wrap;html=1;" vertex="1" parent="1">
          <mxGeometry x="310" y="1904" width="160" height="20" as="geometry" />
        </mxCell>
        <mxCell id="Ef68fgs5h4j_hSDtG3T8-141" style="edgeStyle=orthogonalEdgeStyle;rounded=0;orthogonalLoop=1;jettySize=auto;html=1;exitX=1;exitY=0.5;exitDx=0;exitDy=0;entryX=1;entryY=0.5;entryDx=0;entryDy=0;dashed=1;" edge="1" parent="1" source="Ef68fgs5h4j_hSDtG3T8-121" target="Ef68fgs5h4j_hSDtG3T8-53">
          <mxGeometry relative="1" as="geometry">
            <Array as="points">
              <mxPoint x="710" y="1869" />
              <mxPoint x="710" y="2118" />
            </Array>
          </mxGeometry>
        </mxCell>
        <mxCell id="Ef68fgs5h4j_hSDtG3T8-121" value="struct netdev_dummy" style="rounded=0;whiteSpace=wrap;html=1;" vertex="1" parent="1">
          <mxGeometry x="526" y="1854" width="160" height="30" as="geometry" />
        </mxCell>
        <mxCell id="Ef68fgs5h4j_hSDtG3T8-129" style="edgeStyle=orthogonalEdgeStyle;rounded=0;orthogonalLoop=1;jettySize=auto;html=1;exitX=0;exitY=0.5;exitDx=0;exitDy=0;entryX=1;entryY=0.5;entryDx=0;entryDy=0;" edge="1" parent="1" source="Ef68fgs5h4j_hSDtG3T8-122" target="Ef68fgs5h4j_hSDtG3T8-16">
          <mxGeometry relative="1" as="geometry">
            <Array as="points">
              <mxPoint x="500" y="1894" />
              <mxPoint x="500" y="1840" />
              <mxPoint x="50" y="1840" />
              <mxPoint x="50" y="1776" />
            </Array>
          </mxGeometry>
        </mxCell>
        <mxCell id="Ef68fgs5h4j_hSDtG3T8-122" value="struct netdev up" style="rounded=0;whiteSpace=wrap;html=1;" vertex="1" parent="1">
          <mxGeometry x="526" y="1884" width="160" height="20" as="geometry" />
        </mxCell>
        <mxCell id="Ef68fgs5h4j_hSDtG3T8-123" value="......" style="rounded=0;whiteSpace=wrap;html=1;" vertex="1" parent="1">
          <mxGeometry x="526" y="1904" width="160" height="20" as="geometry" />
        </mxCell>
      </root>
    </mxGraphModel>
  </diagram>
</mxfile>
